<svg width="504" height="488" viewBox="0 0 504 488" fill="none" xmlns="http://www.w3.org/2000/svg">
<path d="M438.373 321.375C412.247 462.961 126.93 391.823 72.5454 332.179C-67.2088 188.782 173.795 58.9403 223.98 29.9656C326.731 -29.3576 471.031 144.393 438.373 321.375Z" fill="#007AFF"/>
<g clip-path="url(#clip0)">
<path opacity="0.5" d="M266.433 373.626L129.822 294.611C125.956 292.377 126.444 288.476 130.904 285.888L223.926 232.102C228.386 229.524 235.142 229.246 239.008 231.479L375.628 310.494C379.494 312.728 379.006 316.629 374.547 319.217L281.524 373.003C277.055 375.581 270.299 375.859 266.433 373.626Z" fill="url(#paint0_linear)"/>
<path d="M413.905 157.813L271.744 75.5967C270.089 74.6381 268.414 74.4943 266.931 75.0024L266.94 74.9832L266.682 75.0791C266.663 75.0887 266.644 75.0982 266.615 75.0982L261.476 77.0633L266.089 79.3255C266.069 79.4118 266.041 79.4885 266.022 79.5748L242.864 185.152C241.706 190.434 244.022 196.607 248.051 198.926L386.786 279.168L386.288 285.054L391.905 282.878C393.791 281.996 395.303 279.993 395.925 277.146L419.082 171.569C420.24 166.306 417.924 160.133 413.905 157.813Z" fill="#3B8BF8"/>
<path d="M413.905 157.813L271.744 75.5967C270.088 74.6381 268.414 74.4943 266.931 75.0024L266.94 74.9832L266.682 75.0791C266.663 75.0887 266.643 75.0982 266.615 75.0982L261.476 77.0633L266.088 79.3255C266.069 79.4118 266.041 79.4885 266.021 79.5748L250.758 149.157L320.318 203.441L418.393 163.469C417.446 161.034 415.886 158.954 413.905 157.813Z" fill="#396CAA"/>
<path d="M408.547 174.043L419.369 169.432C419.57 165.233 417.829 160.901 414.987 158.581L397.858 165.799L408.547 174.043Z" fill="#274F89"/>
<path d="M381.36 284.517L239.199 202.301C235.18 199.971 232.854 193.808 234.012 188.526L257.17 82.9489C258.328 77.6672 262.529 75.2707 266.548 77.5905L408.7 159.807C412.719 162.136 415.044 168.3 413.886 173.582L390.728 279.159C389.58 284.45 385.379 286.847 381.36 284.517Z" fill="#D4ECFF"/>
<path d="M410.068 159.299L267.916 77.0916C265.964 75.9605 263.983 75.9701 262.318 76.852C263.658 76.5548 265.113 76.7657 266.548 77.5996L408.7 159.816C412.719 162.146 415.044 168.309 413.886 173.591L390.728 279.168C390.135 281.89 388.719 283.827 386.949 284.766C389.35 284.239 391.35 282.063 392.097 278.67L415.254 173.093C416.412 167.801 414.097 161.628 410.068 159.299Z" fill="white"/>
<path d="M378.279 276.667L244.587 199.387C240.902 197.259 238.788 191.613 239.84 186.782L261.027 90.1577C262.089 85.3265 265.926 83.1314 269.61 85.2594L403.303 162.539C406.987 164.667 409.102 170.313 408.049 175.145L386.863 271.769C385.8 276.6 381.954 278.795 378.279 276.667Z" fill="white"/>
<path d="M378.279 276.667L244.587 199.387C240.902 197.259 238.788 191.613 239.84 186.782L261.027 90.1577C262.089 85.3265 265.926 83.1314 269.61 85.2594L403.303 162.539C406.987 164.667 409.102 170.313 408.049 175.145L386.863 271.769C385.8 276.6 381.954 278.795 378.279 276.667Z" fill="#2F80ED"/>
<path d="M379.437 276.187L245.744 198.907C242.06 196.779 239.945 191.133 240.998 186.302L262.184 89.6873C262.72 87.243 263.974 85.4792 265.553 84.5973C263.438 85.1437 261.687 87.1375 261.017 90.157L239.84 186.771C238.778 191.603 240.902 197.249 244.586 199.377L378.279 276.657C380.097 277.711 381.953 277.702 383.494 276.839C382.221 277.174 380.815 276.983 379.437 276.187Z" fill="#5793CE"/>
<path d="M383.322 288.102L363.886 285.533L238.452 212.988C234.433 210.659 227.41 210.956 222.759 213.64L133.879 265.029L122.128 263.476V270.158H122.138C122.061 271.701 122.942 273.187 124.837 274.279L266.988 356.496C271.007 358.825 278.031 358.528 282.682 355.844L379.475 299.883C382.087 298.368 383.389 296.422 383.312 294.601V288.102H383.322Z" fill="#2F80ED"/>
<path d="M289.074 242.263L280.165 237.106H182.176L133.87 265.02L122.119 263.467V270.148H122.128C122.052 271.691 122.932 273.177 124.827 274.27L266.979 356.486C269.103 357.713 272.069 358.202 275.074 358.011L289.074 242.263Z" fill="#396CAA"/>
<path d="M127.344 264.158L122.128 263.468V270.149H122.138C122.061 271.692 122.942 273.178 124.837 274.271L127.344 275.718V264.158Z" fill="#5793CE"/>
<path d="M268.424 357.158C272.232 358.605 277.687 358.289 281.753 356.333V341.437H268.424V357.158Z" fill="#274F89"/>
<path d="M266.998 349.816L124.837 267.599C120.818 265.27 121.315 261.215 125.966 258.522L222.759 202.56C227.4 199.876 234.424 199.579 238.453 201.908L380.604 284.125C384.623 286.454 384.126 290.509 379.475 293.203L282.682 349.164C278.041 351.848 271.017 352.145 266.998 349.816Z" fill="#D4ECFF"/>
<path d="M379.484 290.768L282.691 346.729C278.05 349.413 271.026 349.71 266.998 347.381L124.837 265.164C123.516 264.397 122.693 263.448 122.339 262.423C121.707 264.33 122.511 266.257 124.837 267.599L266.988 349.816C271.007 352.145 278.031 351.848 282.682 349.164L379.475 293.202C382.595 291.4 383.839 288.975 383.102 286.866C382.652 288.256 381.437 289.636 379.484 290.768Z" fill="white"/>
<path d="M185.295 240.384L178.865 236.665C178.348 236.368 178.415 235.84 179.008 235.495L186.597 231.105C187.19 230.76 188.099 230.722 188.616 231.019L195.046 234.738C195.563 235.035 195.496 235.562 194.903 235.907L187.314 240.298C186.721 240.643 185.812 240.681 185.295 240.384Z" fill="#5793CE"/>
<path d="M195.228 246.126L188.798 242.406C188.281 242.109 188.348 241.582 188.941 241.237L196.53 236.847C197.123 236.502 198.032 236.463 198.549 236.76L204.979 240.48C205.496 240.777 205.429 241.304 204.836 241.649L197.247 246.039C196.654 246.394 195.745 246.423 195.228 246.126Z" fill="#5793CE"/>
<path d="M205.161 251.877L198.731 248.158C198.214 247.861 198.281 247.334 198.874 246.989L206.463 242.598C207.056 242.253 207.965 242.215 208.482 242.512L214.912 246.231C215.429 246.529 215.362 247.056 214.769 247.401L207.18 251.791C206.587 252.136 205.678 252.175 205.161 251.877Z" fill="#5793CE"/>
<path d="M218.902 247.133L212.472 243.413C211.955 243.116 212.022 242.589 212.615 242.244L218.989 238.553C219.582 238.208 220.491 238.17 221.008 238.467L227.438 242.186C227.955 242.484 227.888 243.011 227.295 243.356L220.922 247.046C220.319 247.391 219.419 247.43 218.902 247.133Z" fill="#5793CE"/>
<path d="M228.835 252.874L222.405 249.155C221.888 248.858 221.955 248.331 222.548 247.986L228.922 244.295C229.515 243.95 230.424 243.912 230.941 244.209L237.371 247.928C237.888 248.225 237.821 248.753 237.228 249.098L230.855 252.788C230.252 253.133 229.352 253.172 228.835 252.874Z" fill="#5793CE"/>
<path d="M238.768 258.616L232.338 254.897C231.821 254.6 231.888 254.072 232.481 253.727L238.855 250.037C239.448 249.692 240.357 249.653 240.874 249.951L247.304 253.67C247.821 253.967 247.754 254.494 247.161 254.839L240.788 258.53C240.185 258.875 239.285 258.913 238.768 258.616Z" fill="#5793CE"/>
<path d="M248.701 264.368L242.271 260.649C241.754 260.351 241.821 259.824 242.414 259.479L248.788 255.789C249.381 255.444 250.29 255.405 250.807 255.702L257.237 259.422C257.754 259.719 257.687 260.246 257.094 260.591L250.721 264.282C250.118 264.627 249.218 264.665 248.701 264.368Z" fill="#5793CE"/>
<path d="M258.634 270.11L252.204 266.39C251.687 266.093 251.754 265.566 252.347 265.221L258.72 261.53C259.314 261.185 260.223 261.147 260.74 261.444L267.17 265.163C267.687 265.46 267.62 265.988 267.027 266.333L260.653 270.023C260.051 270.368 259.151 270.407 258.634 270.11Z" fill="#5793CE"/>
<path d="M268.567 275.851L262.137 272.132C261.62 271.835 261.687 271.308 262.28 270.963L268.653 267.272C269.247 266.927 270.156 266.889 270.672 267.186L277.103 270.905C277.62 271.202 277.553 271.729 276.959 272.075L270.586 275.765C269.983 276.11 269.084 276.148 268.567 275.851Z" fill="#5793CE"/>
<path d="M278.5 281.593L272.07 277.874C271.553 277.577 271.62 277.049 272.213 276.704L278.586 273.014C279.18 272.669 280.089 272.63 280.605 272.928L287.036 276.647C287.553 276.944 287.486 277.471 286.892 277.816L280.519 281.507C279.916 281.861 279.017 281.9 278.5 281.593Z" fill="#5793CE"/>
<path d="M288.433 287.345L282.002 283.626C281.486 283.328 281.553 282.801 282.146 282.456L288.519 278.766C289.112 278.42 290.021 278.382 290.538 278.679L296.969 282.399C297.485 282.696 297.418 283.223 296.825 283.568L290.452 287.258C289.849 287.604 288.95 287.642 288.433 287.345Z" fill="#5793CE"/>
<path d="M298.366 293.087L291.935 289.367C291.419 289.07 291.486 288.543 292.079 288.198L298.452 284.507C299.045 284.162 299.954 284.124 300.471 284.421L306.902 288.14C307.418 288.437 307.351 288.965 306.758 289.31L300.385 293C299.782 293.345 298.883 293.384 298.366 293.087Z" fill="#5793CE"/>
<path d="M308.299 298.828L301.868 295.109C301.351 294.812 301.418 294.285 302.012 293.939L308.385 290.249C308.978 289.904 309.887 289.866 310.404 290.163L316.834 293.882C317.351 294.179 317.284 294.706 316.691 295.051L310.318 298.742C309.715 299.097 308.815 299.125 308.299 298.828Z" fill="#5793CE"/>
<path d="M233.534 244.41L227.103 240.69C226.587 240.393 226.654 239.866 227.247 239.521L233.62 235.83C234.213 235.485 235.123 235.447 235.639 235.744L242.07 239.463C242.587 239.761 242.52 240.288 241.926 240.633L235.553 244.323C234.96 244.668 234.051 244.707 233.534 244.41Z" fill="#5793CE"/>
<path d="M223.457 238.582L217.027 234.863C216.51 234.565 216.577 234.038 217.17 233.693L223.544 230.003C224.137 229.657 225.046 229.619 225.563 229.916L231.993 233.636C232.51 233.933 232.443 234.46 231.85 234.805L225.477 238.496C224.874 238.841 223.974 238.879 223.457 238.582Z" fill="#5793CE"/>
<path d="M213.362 232.735L199.506 224.721C198.989 224.424 199.056 223.897 199.649 223.552L206.022 219.861C206.616 219.516 207.525 219.478 208.042 219.775L221.898 227.789C222.415 228.086 222.348 228.613 221.754 228.958L215.381 232.649C214.778 233.003 213.879 233.042 213.362 232.735Z" fill="#5793CE"/>
<path d="M220.415 225.641L209.171 219.142C208.654 218.845 208.721 218.317 209.314 217.972L215.687 214.282C216.281 213.937 217.19 213.898 217.706 214.195L228.95 220.695C229.467 220.992 229.4 221.519 228.807 221.864L222.434 225.555C221.84 225.9 220.931 225.938 220.415 225.641Z" fill="#5793CE"/>
<path d="M243.467 250.153L237.036 246.434C236.52 246.136 236.587 245.609 237.18 245.264L243.553 241.574C244.146 241.229 245.056 241.19 245.572 241.487L252.003 245.207C252.52 245.504 252.453 246.031 251.859 246.376L245.486 250.067C244.893 250.412 243.984 250.45 243.467 250.153Z" fill="#5793CE"/>
<path d="M253.4 255.895L246.969 252.175C246.453 251.878 246.52 251.351 247.113 251.006L253.486 247.315C254.079 246.97 254.988 246.932 255.505 247.229L261.936 250.948C262.452 251.245 262.385 251.773 261.792 252.118L255.419 255.808C254.826 256.163 253.917 256.201 253.4 255.895Z" fill="#5793CE"/>
<path d="M263.333 261.645L256.902 257.926C256.386 257.628 256.452 257.101 257.046 256.756L263.419 253.066C264.012 252.721 264.921 252.682 265.438 252.979L271.869 256.699C272.385 256.996 272.318 257.523 271.725 257.868L265.352 261.559C264.759 261.904 263.85 261.942 263.333 261.645Z" fill="#5793CE"/>
<path d="M273.266 267.388L266.835 263.669C266.318 263.372 266.385 262.844 266.979 262.499L273.352 258.809C273.945 258.464 274.854 258.425 275.371 258.722L281.802 262.442C282.318 262.739 282.251 263.266 281.658 263.611L275.285 267.302C274.692 267.647 273.783 267.685 273.266 267.388Z" fill="#5793CE"/>
<path d="M283.199 273.13L276.768 269.41C276.251 269.113 276.318 268.586 276.912 268.241L283.285 264.55C283.878 264.205 284.787 264.167 285.304 264.464L291.734 268.183C292.251 268.481 292.184 269.008 291.591 269.353L285.218 273.043C284.624 273.398 283.715 273.436 283.199 273.13Z" fill="#5793CE"/>
<path d="M293.131 278.88L286.701 275.161C286.184 274.864 286.251 274.336 286.844 273.991L293.218 270.301C293.811 269.956 294.72 269.917 295.237 270.215L301.667 273.934C302.184 274.231 302.117 274.758 301.524 275.103L295.151 278.794C294.557 279.139 293.648 279.177 293.131 278.88Z" fill="#5793CE"/>
<path d="M303.064 284.622L296.634 280.902C296.117 280.605 296.184 280.078 296.777 279.733L303.151 276.043C303.744 275.697 304.653 275.659 305.17 275.956L311.6 279.676C312.117 279.973 312.05 280.5 311.457 280.845L305.083 284.535C304.49 284.881 303.581 284.919 303.064 284.622Z" fill="#5793CE"/>
<path d="M312.997 290.364L306.567 286.644C306.05 286.347 306.117 285.82 306.71 285.475L313.083 281.784C313.677 281.439 314.586 281.401 315.102 281.698L321.533 285.417C322.05 285.714 321.983 286.242 321.389 286.587L315.016 290.277C314.423 290.622 313.514 290.661 312.997 290.364Z" fill="#5793CE"/>
<path d="M322.93 296.115L316.5 292.396C315.983 292.099 316.05 291.572 316.643 291.227L323.016 287.536C323.61 287.191 324.519 287.153 325.035 287.45L331.466 291.169C331.983 291.466 331.916 291.993 331.322 292.338L324.949 296.029C324.356 296.374 323.447 296.412 322.93 296.115Z" fill="#5793CE"/>
<path d="M340.595 306.324L326.557 298.205C326.04 297.908 326.107 297.381 326.701 297.036L333.074 293.345C333.667 293 334.576 292.962 335.093 293.259L349.131 301.378C349.648 301.675 349.581 302.202 348.987 302.547L342.614 306.238C342.011 306.583 341.112 306.621 340.595 306.324Z" fill="#5793CE"/>
<path d="M359.935 295.137L348.088 288.283C347.571 287.986 347.638 287.459 348.231 287.114L354.605 283.424C355.198 283.078 356.107 283.04 356.624 283.337L368.47 290.191C368.987 290.488 368.92 291.015 368.327 291.36L361.954 295.051C361.351 295.396 360.451 295.434 359.935 295.137Z" fill="#5793CE"/>
<path d="M260.864 249.03L254.433 245.311C253.917 245.014 253.984 244.487 254.577 244.142L260.95 240.451C261.543 240.106 262.452 240.068 262.969 240.365L269.4 244.084C269.916 244.381 269.849 244.908 269.256 245.254L262.883 248.944C262.28 249.289 261.381 249.327 260.864 249.03Z" fill="#5793CE"/>
<path d="M250.682 243.145L244.252 239.426C243.735 239.129 243.802 238.601 244.395 238.256L250.768 234.566C251.362 234.221 252.271 234.182 252.788 234.48L259.218 238.199C259.735 238.496 259.668 239.023 259.075 239.368L252.701 243.059C252.108 243.404 251.199 243.442 250.682 243.145Z" fill="#5793CE"/>
<path d="M240.51 237.26L234.079 233.541C233.563 233.243 233.63 232.716 234.223 232.371L240.596 228.681C241.189 228.335 242.099 228.297 242.615 228.594L249.046 232.314C249.563 232.611 249.496 233.138 248.902 233.483L242.529 237.174C241.926 237.519 241.017 237.557 240.51 237.26Z" fill="#5793CE"/>
<path d="M230.328 231.364L223.898 227.645C223.381 227.348 223.448 226.821 224.041 226.476L230.414 222.785C231.008 222.44 231.917 222.402 232.434 222.699L238.864 226.418C239.381 226.715 239.314 227.243 238.721 227.588L232.347 231.278C231.745 231.633 230.845 231.671 230.328 231.364Z" fill="#5793CE"/>
<path d="M270.797 254.772L264.366 251.053C263.85 250.756 263.917 250.228 264.51 249.883L270.883 246.193C271.476 245.848 272.385 245.809 272.902 246.107L279.333 249.826C279.849 250.123 279.782 250.65 279.189 250.995L272.816 254.686C272.213 255.031 271.314 255.069 270.797 254.772Z" fill="#5793CE"/>
<path d="M280.73 260.524L274.299 256.805C273.782 256.507 273.849 255.98 274.443 255.635L280.816 251.945C281.409 251.599 282.318 251.561 282.835 251.858L289.265 255.578C289.782 255.875 289.715 256.402 289.122 256.747L282.749 260.437C282.146 260.783 281.246 260.821 280.73 260.524Z" fill="#5793CE"/>
<path d="M290.663 266.265L284.232 262.546C283.715 262.249 283.782 261.722 284.376 261.377L290.749 257.686C291.342 257.341 292.251 257.303 292.768 257.6L299.198 261.319C299.715 261.616 299.648 262.144 299.055 262.489L292.682 266.179C292.079 266.524 291.179 266.563 290.663 266.265Z" fill="#5793CE"/>
<path d="M300.595 272.007L294.165 268.288C293.648 267.991 293.715 267.464 294.308 267.118L300.682 263.428C301.275 263.083 302.184 263.045 302.701 263.342L309.131 267.061C309.648 267.358 309.581 267.885 308.988 268.23L302.615 271.921C302.012 272.266 301.112 272.304 300.595 272.007Z" fill="#5793CE"/>
<path d="M310.528 277.749L304.098 274.03C303.581 273.732 303.648 273.205 304.241 272.86L310.615 269.17C311.208 268.825 312.117 268.786 312.634 269.083L319.064 272.803C319.581 273.1 319.514 273.627 318.921 273.972L312.548 277.663C311.945 278.017 311.045 278.056 310.528 277.749Z" fill="#5793CE"/>
<path d="M320.461 283.501L314.031 279.781C313.514 279.484 313.581 278.957 314.174 278.612L320.548 274.921C321.141 274.576 322.05 274.538 322.567 274.835L328.997 278.554C329.514 278.852 329.447 279.379 328.854 279.724L322.481 283.414C321.878 283.759 320.978 283.798 320.461 283.501Z" fill="#5793CE"/>
<path d="M330.394 289.242L323.964 285.523C323.447 285.226 323.514 284.699 324.107 284.354L330.48 280.663C331.074 280.318 331.983 280.28 332.5 280.577L338.93 284.296C339.447 284.593 339.38 285.121 338.787 285.466L332.413 289.156C331.811 289.501 330.911 289.54 330.394 289.242Z" fill="#5793CE"/>
<path d="M340.327 294.984L333.897 291.265C333.38 290.968 333.447 290.44 334.04 290.095L340.413 286.405C341.007 286.06 341.916 286.021 342.432 286.319L348.863 290.038C349.38 290.335 349.313 290.862 348.72 291.207L342.346 294.898C341.744 295.253 340.844 295.281 340.327 294.984Z" fill="#5793CE"/>
<path d="M350.26 300.736L343.829 297.017C343.313 296.719 343.38 296.192 343.973 295.847L350.346 292.157C350.939 291.812 351.848 291.773 352.365 292.07L358.796 295.79C359.312 296.087 359.245 296.614 358.652 296.959L352.279 300.65C351.676 300.995 350.777 301.033 350.26 300.736Z" fill="#5793CE"/>
<path d="M255.639 234.824L249.209 231.105C248.692 230.807 248.759 230.28 249.352 229.935L255.725 226.245C256.318 225.9 257.228 225.861 257.744 226.158L264.175 229.878C264.692 230.175 264.625 230.702 264.031 231.047L257.658 234.738C257.055 235.083 256.156 235.121 255.639 234.824Z" fill="#5793CE"/>
<path d="M245.754 229.102L239.323 225.383C238.807 225.086 238.874 224.559 239.467 224.214L245.84 220.523C246.433 220.178 247.343 220.14 247.859 220.437L254.29 224.156C254.807 224.453 254.74 224.98 254.146 225.325L247.773 229.016C247.17 229.371 246.271 229.399 245.754 229.102Z" fill="#5793CE"/>
<path d="M235.869 223.389L229.438 219.67C228.922 219.373 228.989 218.846 229.582 218.501L235.955 214.81C236.548 214.465 237.457 214.427 237.974 214.724L244.405 218.443C244.921 218.74 244.854 219.267 244.261 219.612L237.888 223.303C237.285 223.648 236.386 223.686 235.869 223.389Z" fill="#5793CE"/>
<path d="M225.984 217.676L219.553 213.957C219.037 213.66 219.104 213.133 219.697 212.787L226.07 209.097C226.663 208.752 227.572 208.714 228.089 209.011L234.52 212.73C235.037 213.027 234.97 213.554 234.376 213.899L228.003 217.59C227.4 217.935 226.501 217.973 225.984 217.676Z" fill="#5793CE"/>
<path d="M236.146 211.8L229.716 208.08C229.199 207.783 229.266 207.256 229.859 206.911L231.965 205.694C232.558 205.349 233.467 205.31 233.984 205.607L240.414 209.327C240.931 209.624 240.864 210.151 240.271 210.496L238.166 211.713C237.563 212.058 236.663 212.097 236.146 211.8Z" fill="#5793CE"/>
<path d="M249.046 219.257L242.615 215.537C242.099 215.24 242.166 214.713 242.759 214.368L244.864 213.151C245.457 212.806 246.366 212.767 246.883 213.064L253.314 216.784C253.83 217.081 253.764 217.608 253.17 217.953L251.065 219.17C250.462 219.516 249.563 219.554 249.046 219.257Z" fill="#5793CE"/>
<path d="M258.893 224.951L252.462 221.232C251.945 220.935 252.012 220.407 252.606 220.062L254.711 218.845C255.304 218.5 256.213 218.462 256.73 218.759L263.161 222.478C263.677 222.775 263.61 223.302 263.017 223.647L260.912 224.865C260.309 225.21 259.409 225.248 258.893 224.951Z" fill="#5793CE"/>
<path d="M268.73 230.635L262.299 226.916C261.783 226.619 261.85 226.092 262.443 225.747L264.548 224.529C265.141 224.184 266.05 224.146 266.567 224.443L272.998 228.162C273.514 228.459 273.447 228.987 272.854 229.332L270.749 230.549C270.146 230.904 269.247 230.942 268.73 230.635Z" fill="#5793CE"/>
<path d="M278.577 236.33L272.146 232.61C271.629 232.313 271.696 231.786 272.29 231.441L274.395 230.224C274.988 229.879 275.897 229.84 276.414 230.137L282.845 233.857C283.361 234.154 283.294 234.681 282.701 235.026L280.596 236.243C279.993 236.589 279.093 236.627 278.577 236.33Z" fill="#5793CE"/>
<path d="M333.523 268.106L327.093 264.387C326.576 264.089 326.643 263.562 327.236 263.217L329.342 262C329.935 261.655 330.844 261.616 331.361 261.913L337.791 265.633C338.308 265.93 338.241 266.457 337.648 266.802L335.543 268.02C334.94 268.374 334.04 268.413 333.523 268.106Z" fill="#5793CE"/>
<path d="M343.361 273.8L336.93 270.081C336.413 269.784 336.48 269.257 337.074 268.911L339.179 267.694C339.772 267.349 340.681 267.311 341.198 267.608L347.629 271.327C348.145 271.624 348.078 272.151 347.485 272.497L345.38 273.714C344.787 274.059 343.877 274.097 343.361 273.8Z" fill="#5793CE"/>
<path d="M353.207 279.494L346.777 275.775C346.26 275.478 346.327 274.951 346.92 274.606L349.026 273.388C349.619 273.043 350.528 273.005 351.045 273.302L357.475 277.021C357.992 277.319 357.925 277.846 357.332 278.191L355.227 279.408C354.624 279.753 353.724 279.792 353.207 279.494Z" fill="#5793CE"/>
<path d="M363.045 285.187L356.614 281.468C356.097 281.171 356.164 280.644 356.758 280.299L358.863 279.081C359.456 278.736 360.365 278.698 360.882 278.995L367.313 282.714C367.829 283.011 367.762 283.539 367.169 283.884L365.064 285.101C364.471 285.446 363.561 285.485 363.045 285.187Z" fill="#5793CE"/>
<path d="M265.572 240.567L259.142 236.848C258.625 236.551 258.692 236.023 259.285 235.678L265.658 231.988C266.251 231.643 267.161 231.604 267.677 231.902L274.108 235.621C274.625 235.918 274.558 236.445 273.964 236.79L267.591 240.481C266.988 240.826 266.089 240.864 265.572 240.567Z" fill="#5793CE"/>
<path d="M275.505 246.309L269.074 242.589C268.558 242.292 268.625 241.765 269.218 241.42L275.591 237.73C276.184 237.384 277.094 237.346 277.61 237.643L284.041 241.363C284.558 241.66 284.491 242.187 283.897 242.532L277.524 246.222C276.921 246.568 276.022 246.606 275.505 246.309Z" fill="#5793CE"/>
<path d="M285.438 252.059L279.007 248.34C278.491 248.043 278.558 247.515 279.151 247.17L285.524 243.48C286.117 243.135 287.026 243.096 287.543 243.394L293.974 247.113C294.49 247.41 294.423 247.937 293.83 248.282L287.457 251.973C286.854 252.318 285.955 252.356 285.438 252.059Z" fill="#5793CE"/>
<path d="M295.371 257.802L288.94 254.083C288.423 253.786 288.49 253.259 289.084 252.913L295.457 249.223C296.05 248.878 296.959 248.84 297.476 249.137L303.906 252.856C304.423 253.153 304.356 253.68 303.763 254.025L297.39 257.716C296.787 258.061 295.887 258.099 295.371 257.802Z" fill="#5793CE"/>
<path d="M305.304 263.544L298.873 259.825C298.356 259.528 298.423 259 299.016 258.655L305.39 254.965C305.983 254.62 306.892 254.581 307.409 254.878L313.839 258.598C314.356 258.895 314.289 259.422 313.696 259.767L307.323 263.458C306.72 263.803 305.82 263.841 305.304 263.544Z" fill="#5793CE"/>
<path d="M315.236 269.286L308.806 265.566C308.289 265.269 308.356 264.742 308.949 264.397L315.323 260.706C315.916 260.361 316.825 260.323 317.342 260.62L323.772 264.339C324.289 264.637 324.222 265.164 323.629 265.509L317.256 269.199C316.653 269.554 315.753 269.592 315.236 269.286Z" fill="#5793CE"/>
<path d="M325.17 275.037L318.729 271.318C318.213 271.021 318.28 270.494 318.873 270.149L325.246 266.458C325.839 266.113 326.748 266.075 327.265 266.372L333.696 270.091C334.212 270.388 334.145 270.916 333.552 271.261L327.179 274.951C326.586 275.296 325.686 275.335 325.17 275.037Z" fill="#5793CE"/>
<path d="M335.102 280.778L328.672 277.058C328.155 276.761 328.222 276.234 328.815 275.889L335.189 272.198C335.782 271.853 336.691 271.815 337.208 272.112L343.638 275.831C344.155 276.129 344.088 276.656 343.495 277.001L337.122 280.691C336.519 281.037 335.619 281.075 335.102 280.778Z" fill="#5793CE"/>
<path d="M345.035 286.521L338.605 282.802C338.088 282.504 338.155 281.977 338.748 281.632L345.121 277.942C345.715 277.597 346.624 277.558 347.141 277.855L353.571 281.575C354.088 281.872 354.021 282.399 353.428 282.744L347.054 286.435C346.452 286.789 345.552 286.818 345.035 286.521Z" fill="#5793CE"/>
<path d="M208.778 241.276L189.831 230.319C189.314 230.022 189.381 229.495 189.975 229.15L196.348 225.459C196.941 225.114 197.85 225.076 198.367 225.373L217.314 236.33C217.831 236.627 217.764 237.154 217.17 237.499L210.797 241.19C210.194 241.535 209.295 241.573 208.778 241.276Z" fill="#5793CE"/>
<path d="M330.806 311.846L311.859 300.889C311.342 300.592 311.409 300.065 312.002 299.72L318.375 296.029C318.969 295.684 319.878 295.646 320.394 295.943L339.342 306.9C339.858 307.197 339.791 307.724 339.198 308.069L332.825 311.76C332.232 312.114 331.322 312.153 330.806 311.846Z" fill="#5793CE"/>
<path d="M291.084 301.561L284.653 297.841C284.136 297.544 284.203 297.017 284.797 296.672L292.385 292.282C292.978 291.936 293.887 291.898 294.404 292.195L300.835 295.915C301.351 296.212 301.284 296.739 300.691 297.084L293.103 301.474C292.5 301.829 291.6 301.867 291.084 301.561Z" fill="#5793CE"/>
<path d="M218.951 259.843L208.664 253.89C208.147 253.593 208.214 253.065 208.807 252.72L216.396 248.33C216.989 247.985 217.898 247.947 218.415 248.244L228.702 254.197C229.218 254.494 229.151 255.021 228.558 255.366L220.97 259.756C220.367 260.111 219.467 260.149 218.951 259.843Z" fill="#5793CE"/>
<path d="M281.514 296.03L271.227 290.077C270.711 289.78 270.777 289.253 271.371 288.908L278.959 284.517C279.553 284.172 280.462 284.134 280.978 284.431L291.265 290.393C291.782 290.691 291.715 291.218 291.122 291.563L283.533 295.953C282.931 296.289 282.031 296.327 281.514 296.03Z" fill="#5793CE"/>
<path d="M233.285 268.135L222.998 262.182C222.482 261.885 222.549 261.358 223.142 261.013L230.73 256.623C231.324 256.278 232.233 256.239 232.749 256.536L243.036 262.489C243.553 262.786 243.486 263.313 242.893 263.659L235.304 268.049C234.702 268.394 233.802 268.432 233.285 268.135Z" fill="#5793CE"/>
<path d="M232.816 256.585L277.543 282.447C278.098 282.763 278.098 283.29 277.543 283.607L269.802 288.083C269.247 288.4 268.347 288.4 267.792 288.083L223.065 262.221L232.816 256.585Z" fill="#5793CE"/>
<path d="M318.844 311.979L326.012 316.12C326.433 316.37 326.385 316.791 325.897 317.079L322.787 318.871C322.299 319.149 321.562 319.188 321.131 318.939L313.964 314.798C313.543 314.548 313.591 314.127 314.079 313.839L317.189 312.046C317.686 311.768 318.423 311.74 318.844 311.979Z" fill="#5793CE"/>
<path d="M308.835 306.19L316.002 310.331C316.423 310.58 316.375 311.002 315.887 311.29L312.777 313.082C312.289 313.36 311.552 313.399 311.122 313.149L303.954 309.008C303.533 308.759 303.581 308.337 304.069 308.05L307.179 306.257C307.667 305.97 308.404 305.941 308.835 306.19Z" fill="#5793CE"/>
<path d="M298.902 300.449L306.069 304.59C306.49 304.839 306.442 305.261 305.954 305.548L302.844 307.341C302.356 307.619 301.619 307.657 301.189 307.408L294.021 303.267C293.6 303.017 293.648 302.596 294.136 302.308L297.246 300.516C297.734 300.228 298.471 300.199 298.902 300.449Z" fill="#5793CE"/>
<path d="M314.318 303.018L321.485 307.159C321.906 307.408 321.859 307.83 321.37 308.117L318.26 309.91C317.772 310.188 317.036 310.226 316.605 309.977L309.438 305.836C309.017 305.587 309.064 305.165 309.552 304.877L312.662 303.085C313.15 302.807 313.897 302.768 314.318 303.018Z" fill="#5793CE"/>
<path d="M353.552 190.924L300.05 159.981L300.739 156.502L354.241 187.444L353.552 190.924Z" fill="#D4ECFF"/>
<path d="M334.394 196.799L297.045 175.203L297.734 171.723L335.074 193.32L334.394 196.799Z" fill="#D4ECFF"/>
<path d="M330.854 186.274L298.548 167.592L299.237 164.112L331.543 182.795L330.854 186.274Z" fill="white"/>
<path d="M352.049 198.535L335.897 189.189L336.586 185.71L352.738 195.056L352.049 198.535Z" fill="#FF2C9C"/>
<path d="M294.347 129.585L278.194 120.238L278.883 116.759L295.036 126.095L294.347 129.585Z" fill="#D4ECFF"/>
<path d="M292.596 137.675L276.443 128.338L277.132 124.849L293.285 134.195L292.596 137.675Z" fill="white"/>
<path d="M371.887 249.991L355.734 240.645L356.423 237.166L372.576 246.512L371.887 249.991Z" fill="#D4ECFF"/>
<path d="M289.093 153.875L272.94 144.529L273.629 141.049L289.782 150.386L289.093 153.875Z" fill="#D4ECFF"/>
<path d="M324.002 156.386C323.485 157.507 322.184 157.91 321.093 157.277C320.002 156.645 319.533 155.226 320.05 154.095C320.567 152.973 321.868 152.571 322.959 153.203C324.05 153.836 324.509 155.255 324.002 156.386Z" fill="#FF2C9C"/>
<path d="M330.959 160.403C330.442 161.524 329.141 161.927 328.05 161.294C326.959 160.661 326.49 159.243 327.007 158.112C327.524 156.99 328.825 156.588 329.916 157.22C331.007 157.862 331.476 159.281 330.959 160.403Z" fill="white"/>
<path d="M337.916 164.428C337.399 165.55 336.098 165.952 335.007 165.32C333.916 164.687 333.447 163.268 333.964 162.147C334.48 161.025 335.782 160.623 336.873 161.255C337.964 161.888 338.433 163.307 337.916 164.428Z" fill="#D4ECFF"/>
<path d="M344.873 168.454C344.356 169.576 343.055 169.978 341.964 169.345C340.873 168.713 340.404 167.294 340.921 166.163C341.437 165.041 342.739 164.639 343.83 165.272C344.921 165.904 345.389 167.332 344.873 168.454Z" fill="#FF2C9C"/>
<path d="M229.209 313.485L184.855 287.834C183.563 287.086 183.726 285.783 185.219 284.92L211.984 269.439C213.477 268.576 215.725 268.48 217.017 269.228L261.371 294.879C262.663 295.627 262.5 296.931 261.007 297.793L234.242 313.274C232.759 314.137 230.5 314.233 229.209 313.485Z" fill="white"/>
<g opacity="0.3">
<g opacity="0.3">
<g opacity="0.3">
<g opacity="0.3">
<path opacity="0.3" d="M325.466 197.969C328.519 199.733 328.519 202.609 325.466 204.382L273.534 234.414C272.691 234.903 271.333 234.903 270.491 234.414C269.648 233.925 269.648 233.139 270.491 232.651L322.423 202.619C323.801 201.823 323.801 200.529 322.423 199.724L317.39 196.81C317.945 195.966 318.452 195.094 318.949 194.193L325.466 197.969Z" fill="#D4ECFF"/>
<path opacity="0.3" d="M251.907 221.905L303.84 191.873C306.892 190.109 311.868 190.109 314.921 191.873L318.949 194.202C318.452 195.094 317.945 195.975 317.39 196.819L311.887 193.637C310.509 192.841 308.27 192.841 306.892 193.637L254.96 223.669C254.118 224.158 252.759 224.158 251.917 223.669C251.065 223.18 251.065 222.394 251.907 221.905Z" fill="#5793CE"/>
</g>
<path opacity="0.3" d="M251.285 222.853L251.275 149.695L305.705 119.308L313.313 118.8L320.672 123.574L325.188 127.513L272.165 211.743L254.854 221.971L251.285 222.853Z" fill="#5793CE"/>
<path opacity="0.3" d="M271.409 232.084L255.141 222.68V151.986L271.916 159.789L271.409 232.084Z" fill="#79B1E0"/>
<path opacity="0.3" d="M327.753 128.079V201.112L270.625 233.847L269.859 233.541V160.402L327.753 128.079Z" fill="#D4ECFF"/>
<g opacity="0.3">
<path opacity="0.3" d="M295.619 128.683L306.978 122.145C308.366 121.503 310.394 121.542 311.677 122.289L322.212 128.386C323.026 128.855 323.361 129.507 323.208 130.121L294.519 147.298L271.467 161.466L255.141 151.986L295.619 128.683Z" fill="white"/>
</g>
<path opacity="0.3" d="M271.916 159.252V231.825V233.359V234.768C271.4 234.759 270.883 234.634 270.491 234.413C270.079 234.174 269.869 233.867 269.859 233.551V233.541V233.532V160.402L271.916 159.252Z" fill="#5793CE"/>
<path opacity="0.3" d="M251.275 150.605V149.695H251.572L251.658 150.318L251.275 150.605Z" fill="white"/>
<path opacity="0.3" d="M269.859 161.352V160.422L270.136 160.815L269.859 161.352Z" fill="white"/>
<g opacity="0.3">
<path opacity="0.3" d="M273.535 161.274L325.468 131.242C328.521 129.478 328.521 126.602 325.468 124.829L314.932 118.733C311.88 116.969 306.904 116.969 303.851 118.733L251.918 148.765C251.076 149.254 251.076 150.04 251.918 150.528C252.761 151.017 254.119 151.017 254.961 150.528L306.894 120.496C308.272 119.701 310.511 119.701 311.889 120.496L322.425 126.593C323.803 127.389 323.803 128.683 322.425 129.488L270.492 159.52C269.65 160.009 269.65 160.795 270.492 161.284C271.325 161.753 272.693 161.753 273.535 161.274Z" fill="#D4ECFF"/>
</g>
<path opacity="0.3" d="M287.064 195.898L314.05 180.293V153.184L287.064 168.799V195.898Z" fill="white"/>
<g opacity="0.3">
<path opacity="0.3" d="M251.907 150.53C252.749 151.019 254.108 151.019 254.95 150.53L306.882 120.498C308.26 119.702 310.5 119.702 311.878 120.498L322.413 126.594C323.313 127.112 323.619 127.85 323.342 128.521C323.198 128.166 322.882 127.831 322.413 127.553L311.878 121.456C310.5 120.661 308.26 120.661 306.882 121.456L254.95 151.488C254.108 151.977 252.749 151.977 251.907 151.488C251.266 151.124 251.122 150.578 251.448 150.127C251.553 150.271 251.706 150.405 251.907 150.53Z" fill="white"/>
<path opacity="0.3" d="M270.491 161.274C271.333 161.763 272.692 161.763 273.534 161.274L325.466 131.242C326.787 130.485 327.524 129.517 327.715 128.52C327.954 129.833 327.208 131.204 325.466 132.21L273.534 162.233C272.692 162.722 271.333 162.722 270.491 162.233C269.85 161.869 269.706 161.322 270.031 160.872C270.137 161.015 270.28 161.15 270.491 161.274Z" fill="white"/>
</g>
</g>
<g opacity="0.3">
<g opacity="0.3">
<path opacity="0.3" d="M349.341 212.126C352.394 213.89 352.394 216.766 349.341 218.539L297.409 248.571C296.567 249.06 295.208 249.06 294.366 248.571C293.524 248.082 293.524 247.296 294.366 246.807L346.298 216.775C347.676 215.98 347.676 214.685 346.298 213.88L341.265 210.966C341.82 210.123 342.327 209.25 342.824 208.349L349.341 212.126Z" fill="#02C57B"/>
<path opacity="0.3" d="M275.782 236.071L327.715 206.039C330.767 204.276 335.743 204.276 338.796 206.039L342.825 208.369C342.327 209.26 341.82 210.142 341.265 210.986L335.762 207.803C334.384 207.007 332.145 207.007 330.767 207.803L278.835 237.835C277.993 238.324 276.634 238.324 275.792 237.835C274.95 237.337 274.95 236.551 275.782 236.071Z" fill="#02C57B"/>
</g>
<path opacity="0.3" d="M275.16 237.011V163.853L329.581 133.466L337.188 132.958L344.547 137.741L349.064 141.671L296.04 225.911L278.729 236.129L275.16 237.011Z" fill="#02C57B"/>
<path opacity="0.3" d="M295.284 246.251L279.017 236.838V166.144L295.791 173.946L295.284 246.251Z" fill="#02C57B"/>
<path opacity="0.3" d="M351.628 142.237V215.27L294.499 248.015L293.734 247.708V174.56L351.628 142.237Z" fill="#02C57B"/>
<g opacity="0.3">
<path opacity="0.3" d="M319.494 142.841L330.853 136.303C332.241 135.661 334.269 135.699 335.552 136.447L346.087 142.544C346.901 143.013 347.236 143.665 347.083 144.279L318.394 161.456L295.351 175.624L279.026 166.144L319.494 142.841Z" fill="white"/>
</g>
<path opacity="0.3" d="M295.791 173.42V245.993V247.527V248.936C295.275 248.926 294.758 248.802 294.366 248.581C293.954 248.342 293.744 248.035 293.734 247.719V247.709V247.7V174.58L295.791 173.42Z" fill="#02C57B"/>
<path opacity="0.3" d="M275.16 164.773V163.853H275.447L275.533 164.476L275.16 164.773Z" fill="white"/>
<path opacity="0.3" d="M293.734 175.509V174.58L294.011 174.973L293.734 175.509Z" fill="white"/>
<g opacity="0.3">
<path opacity="0.3" d="M297.409 175.432L349.341 145.4C352.394 143.637 352.394 140.761 349.341 138.988L338.806 132.891C335.753 131.127 330.777 131.127 327.724 132.891L275.792 162.923C274.95 163.412 274.95 164.198 275.792 164.687C276.634 165.176 277.993 165.176 278.835 164.687L330.767 134.655C332.145 133.859 334.385 133.859 335.763 134.655L346.298 140.751C347.676 141.547 347.676 142.841 346.298 143.646L294.366 173.678C293.524 174.167 293.524 174.953 294.366 175.442C295.208 175.912 296.567 175.912 297.409 175.432Z" fill="#02C57B"/>
</g>
<path opacity="0.3" d="M310.94 210.057L337.925 194.451V167.352L310.94 182.958V210.057Z" fill="white"/>
<g opacity="0.3">
<path opacity="0.3" d="M275.782 164.688C276.624 165.177 277.983 165.177 278.825 164.688L330.758 134.656C332.136 133.86 334.375 133.86 335.753 134.656L346.289 140.752C347.188 141.27 347.494 142.008 347.217 142.679C347.073 142.324 346.757 141.989 346.289 141.711L335.753 135.614C334.375 134.819 332.136 134.819 330.758 135.614L278.825 165.646C277.983 166.135 276.624 166.135 275.782 165.646C275.141 165.282 274.997 164.736 275.323 164.285C275.428 164.429 275.581 164.573 275.782 164.688Z" fill="white"/>
<path opacity="0.3" d="M294.366 175.434C295.208 175.922 296.567 175.922 297.409 175.434L349.341 145.401C350.662 144.644 351.399 143.676 351.59 142.679C351.829 143.992 351.083 145.363 349.341 146.37L297.409 176.402C296.567 176.891 295.208 176.891 294.366 176.402C293.725 176.037 293.581 175.491 293.906 175.041C294.012 175.175 294.165 175.318 294.366 175.434Z" fill="white"/>
</g>
</g>
<g opacity="0.3">
<g opacity="0.3">
<path opacity="0.3" d="M373.877 227.265C376.93 229.029 376.93 231.905 373.877 233.678L321.944 263.71C321.102 264.199 319.744 264.199 318.901 263.71C318.059 263.221 318.059 262.435 318.901 261.946L370.834 231.914C372.212 231.119 372.212 229.824 370.834 229.019L365.8 226.105C366.355 225.262 366.863 224.389 367.36 223.488L373.877 227.265Z" fill="#D4ECFF"/>
<path opacity="0.3" d="M300.318 251.199L352.25 221.167C355.303 219.403 360.279 219.403 363.332 221.167L367.36 223.496C366.863 224.388 366.356 225.27 365.8 226.113L360.298 222.931C358.92 222.135 356.681 222.135 355.303 222.931L303.371 252.963C302.528 253.452 301.17 253.452 300.328 252.963C299.476 252.474 299.476 251.688 300.318 251.199Z" fill="#5793CE"/>
</g>
<path opacity="0.3" d="M299.696 252.147L299.686 178.989L354.116 148.602L361.724 148.094L369.083 152.868L373.599 156.808L320.576 241.037L303.265 251.265L299.696 252.147Z" fill="#5793CE"/>
<path opacity="0.3" d="M319.82 261.379L303.552 251.976V181.271L320.327 189.084L319.82 261.379Z" fill="#79B1E0"/>
<path opacity="0.3" d="M376.164 157.373V230.407L319.035 263.142L318.27 262.835V189.696L376.164 157.373Z" fill="#D4ECFF"/>
<g opacity="0.3">
<path opacity="0.3" d="M344.03 157.977L355.389 151.44C356.777 150.798 358.805 150.836 360.088 151.584L370.623 157.68C371.437 158.15 371.772 158.802 371.618 159.415L342.93 176.593L319.887 190.76L303.562 181.28L344.03 157.977Z" fill="white"/>
</g>
<path opacity="0.3" d="M320.327 188.546V261.12V262.653V264.063C319.811 264.053 319.294 263.928 318.901 263.708C318.49 263.468 318.279 263.161 318.27 262.845V262.836V262.826V189.706L320.327 188.546Z" fill="#5793CE"/>
<path opacity="0.3" d="M299.686 179.9V178.989H299.983L300.069 179.612L299.686 179.9Z" fill="white"/>
<path opacity="0.3" d="M318.27 190.646V189.716L318.547 190.109L318.27 190.646Z" fill="white"/>
<g opacity="0.3">
<path opacity="0.3" d="M321.946 190.569L373.879 160.537C376.931 158.773 376.931 155.897 373.879 154.124L363.343 148.028C360.29 146.264 355.314 146.264 352.262 148.028L300.329 178.06C299.487 178.549 299.487 179.335 300.329 179.823C301.171 180.312 302.53 180.312 303.372 179.823L355.305 149.791C356.683 148.996 358.922 148.996 360.3 149.791L370.836 155.888C372.214 156.684 372.214 157.978 370.836 158.783L318.903 188.815C318.061 189.304 318.061 190.09 318.903 190.579C319.736 191.048 321.104 191.048 321.946 190.569Z" fill="#D4ECFF"/>
</g>
<path opacity="0.3" d="M335.475 225.193L362.461 209.587V182.479L335.475 198.094V225.193Z" fill="white"/>
<g opacity="0.3">
<path opacity="0.3" d="M300.318 179.824C301.16 180.313 302.519 180.313 303.361 179.824L355.293 149.792C356.671 148.996 358.911 148.996 360.289 149.792L370.824 155.889C371.724 156.406 372.03 157.144 371.753 157.815C371.609 157.461 371.293 157.125 370.824 156.857L360.289 150.76C358.911 149.965 356.671 149.965 355.293 150.76L303.361 180.792C302.519 181.281 301.16 181.281 300.318 180.792C299.677 180.428 299.533 179.882 299.859 179.431C299.964 179.565 300.117 179.7 300.318 179.824Z" fill="white"/>
<path opacity="0.3" d="M318.902 190.57C319.744 191.059 321.103 191.059 321.945 190.57L373.877 160.538C375.198 159.781 375.935 158.812 376.126 157.815C376.365 159.129 375.619 160.499 373.877 161.506L321.945 191.538C321.103 192.027 319.744 192.027 318.902 191.538C318.261 191.174 318.117 190.627 318.442 190.177C318.548 190.311 318.691 190.445 318.902 190.57Z" fill="white"/>
</g>
</g>
</g>
</g>
<path opacity="0.5" d="M396.049 344.706C393.991 343.517 390.661 343.517 388.613 344.706L292.691 400.207C290.634 401.396 290.634 403.322 292.691 404.511C294.748 405.7 298.078 405.7 300.126 404.511L396.049 349.01C398.097 347.821 398.097 345.894 396.049 344.706Z" fill="url(#paint1_linear)"/>
<path d="M412.441 314.644C412.345 314.491 412.163 314.405 411.991 314.443L406.192 315.699L408.479 319.591L412.403 315.124C412.508 314.999 412.527 314.807 412.441 314.644Z" fill="#D4ECFF"/>
<path d="M410.154 317.519C410.144 316.685 409.551 315.669 408.824 315.247C408.489 315.055 408.182 315.036 407.953 315.142C401.245 315.084 394.651 316.857 388.872 320.26L388.451 320.51L395.656 332.789L397.781 331.38C402.288 328.389 406.077 324.449 408.9 319.829L409.809 318.343C410.029 318.18 410.154 317.902 410.154 317.519Z" fill="#5793CE"/>
<path d="M397.101 329.52C397.073 326.309 394.795 322.417 392.001 320.835C389.207 319.254 386.967 320.567 386.996 323.778C387.025 326.989 389.302 330.881 392.097 332.463C394.891 334.044 397.13 332.731 397.101 329.52Z" fill="#D4ECFF"/>
<path d="M352.882 359.485L395.656 332.789L388.451 320.51L344.365 344.972L352.882 359.485Z" fill="#D4ECFF"/>
<path d="M354.595 355.612C354.566 351.817 351.867 347.225 348.575 345.346C345.284 343.477 342.633 345.03 342.662 348.826C342.69 352.622 345.389 357.213 348.681 359.092C351.973 360.971 354.623 359.408 354.595 355.612Z" fill="#D4ECFF"/>
<path d="M352.155 357.05C352.126 353.254 349.427 348.662 346.136 346.784C342.844 344.914 340.193 346.467 340.222 350.263C340.25 354.059 342.949 358.651 346.241 360.529C349.533 362.408 352.183 360.846 352.155 357.05Z" fill="#D4ECFF"/>
<path d="M341.916 346.422L285.323 379.742L293.838 394.253L350.43 360.933L341.916 346.422Z" fill="#D4ECFF"/>
<path d="M295.562 390.369C295.533 386.573 292.835 381.982 289.543 380.103C286.251 378.234 283.6 379.786 283.629 383.582C283.658 387.378 286.356 391.97 289.648 393.849C292.94 395.728 295.591 394.165 295.562 390.369Z" fill="#D4ECFF"/>
<path d="M293.428 389.162C293.294 386.919 291.476 384.13 289.361 382.931C287.246 381.733 285.639 382.567 285.763 384.81C285.897 387.053 287.715 389.843 289.83 391.041C291.945 392.239 293.552 391.405 293.428 389.162Z" fill="#396CAA"/>
<path d="M355.025 355.364C354.997 351.568 352.298 346.976 349.006 345.098C347.676 344.34 346.461 344.158 345.475 344.436C346.547 343.315 348.298 343.18 350.298 344.321C353.59 346.19 356.288 350.791 356.317 354.587C356.336 356.85 355.389 358.316 353.934 358.728C354.623 358 355.035 356.859 355.025 355.364Z" fill="white"/>
<path d="M355.025 355.364C354.997 351.569 352.298 346.977 349.006 345.098C347.36 344.159 345.867 344.082 344.805 344.715L341.6 346.603L343.131 349.21C343.408 352.661 345.714 356.591 348.595 358.518L350.126 361.126L353.331 359.237C354.384 358.604 355.035 357.262 355.025 355.364Z" fill="#5793CE"/>
<path d="M351.82 357.253C351.791 353.457 349.092 348.865 345.801 346.986C342.509 345.117 339.858 346.67 339.887 350.466C339.915 354.262 342.614 358.854 345.906 360.732C349.198 362.611 351.848 361.049 351.82 357.253Z" fill="#D4ECFF"/>
<path d="M290.758 390.852L287.084 384.592L275.093 391.657C273.371 392.673 272.787 394.897 273.801 396.632C274.816 398.357 277.036 398.942 278.768 397.926L290.758 390.852Z" fill="url(#paint2_linear)"/>
<path d="M291.504 389.183C291.495 387.544 290.327 385.56 288.902 384.755C287.476 383.949 286.337 384.62 286.347 386.26C286.356 387.899 287.524 389.883 288.949 390.688C290.366 391.493 291.514 390.813 291.504 389.183Z" fill="url(#paint3_linear)"/>
<path d="M304.834 367.079L303.035 366.053C302.002 365.468 300.633 365.612 299.188 366.465L293.026 370.098C291.858 370.779 290.921 372.437 290.93 373.789L290.959 376.875C290.959 377.393 290.71 377.987 290.337 378.428L290.567 379.856L289.026 378.975C288.806 378.86 288.662 378.601 288.662 378.227L288.634 375.14C288.614 372.322 290.567 368.862 292.997 367.433L299.16 363.8C301.217 362.583 303.16 362.382 304.633 363.216L306.432 364.241C307.466 364.826 308.834 364.682 310.279 363.829L335.121 349.201C335.446 349.01 335.733 349 335.944 349.125L337.475 350.007L336.164 350.515C335.982 351.071 335.6 351.607 335.14 351.876L310.298 366.504C308.241 367.702 306.298 367.913 304.834 367.079Z" fill="#5793CE"/>
<path d="M304.586 366.944C303.552 366.36 302.184 366.504 300.739 367.357L294.576 370.99C293.409 371.67 292.471 373.329 292.481 374.68L292.509 377.767C292.519 378.505 292.012 379.396 291.37 379.77C290.739 380.144 290.222 379.847 290.213 379.118L290.184 376.032C290.165 373.214 292.117 369.753 294.548 368.325L300.71 364.692C302.768 363.484 304.71 363.273 306.184 364.107L307.983 365.133C309.016 365.718 310.385 365.574 311.83 364.721L336.671 350.093C337.303 349.719 337.82 350.016 337.829 350.745C337.839 351.483 337.332 352.374 336.691 352.748L311.849 367.376C309.791 368.593 307.849 368.795 306.375 367.961L304.586 366.944Z" fill="#5793CE"/>
<path d="M292.414 375.199L292.442 378.285C292.442 378.305 292.433 378.324 292.433 378.352C292.49 378.161 292.519 377.959 292.519 377.777L292.49 374.691C292.49 374.604 292.5 374.509 292.509 374.422C292.452 374.681 292.404 374.94 292.414 375.199Z" fill="white"/>
<path opacity="0.5" d="M270.883 325.812C281.659 325.812 290.395 320.761 290.395 314.53C290.395 308.299 281.659 303.247 270.883 303.247C260.107 303.247 251.371 308.299 251.371 314.53C251.371 320.761 260.107 325.812 270.883 325.812Z" fill="url(#paint4_linear)"/>
<path d="M293.074 304.877V298.637H291.897C290.844 296.816 289.084 295.1 286.577 293.652C277.907 288.639 263.859 288.639 255.189 293.652C252.682 295.1 250.921 296.816 249.869 298.637H248.692V304.848C248.673 308.146 250.845 311.443 255.189 313.955C263.859 318.968 277.907 318.968 286.577 313.955C290.911 311.453 293.074 308.165 293.074 304.877Z" fill="url(#paint5_linear)"/>
<path d="M270.883 311.472C283.139 311.472 293.074 305.725 293.074 298.637C293.074 291.548 283.139 285.801 270.883 285.801C258.627 285.801 248.692 291.548 248.692 298.637C248.692 305.725 258.627 311.472 270.883 311.472Z" fill="url(#paint6_linear)"/>
<path d="M286.577 307.714C277.907 312.728 263.859 312.728 255.189 307.714C251.036 305.308 248.893 302.193 248.721 299.049C248.529 302.471 250.673 305.922 255.189 308.529C263.859 313.542 277.907 313.542 286.577 308.529C291.093 305.922 293.227 302.461 293.045 299.049C292.864 302.193 290.73 305.308 286.577 307.714Z" fill="white"/>
<path d="M260.184 302.883C259.811 302.663 259.601 302.375 259.601 302.068L259.62 293.71C259.62 293.077 260.519 292.559 261.62 292.559C262.72 292.559 263.61 293.077 263.61 293.719L263.591 300.65L283.687 298.186C284.768 298.052 285.83 298.454 286.06 299.078C286.289 299.701 285.6 300.314 284.519 300.448L262.012 303.209C261.419 303.286 260.806 303.199 260.338 302.979C260.28 302.941 260.232 302.912 260.184 302.883Z" fill="white"/>
<path opacity="0.5" d="M156.176 233.827L139.688 224.29L156.176 214.752L172.664 224.29L156.176 233.827Z" fill="url(#paint7_linear)"/>
<path d="M172.664 212.183L156.176 221.72V202.645L172.664 193.107V212.183Z" fill="url(#paint8_linear)"/>
<path d="M156.176 202.645L139.688 193.107L156.176 183.579L172.664 193.107L156.176 202.645Z" fill="#FFC249"/>
<path d="M156.176 221.72L139.688 212.183V193.107L156.176 202.645V221.72Z" fill="#FFC249"/>
<path d="M150.243 211.416L145.631 208.751V203.412L150.243 206.086V211.416Z" fill="white"/>
<path opacity="0.5" d="M53.6028 404.808L36.4355 394.878L53.6028 384.956L70.7701 394.887L53.6028 404.808Z" fill="url(#paint9_linear)"/>
<path d="M70.77 382.282L53.6027 392.203V372.351L70.77 362.42V382.282Z" fill="#2F80ED"/>
<path d="M53.6029 372.351L36.4356 362.42L53.6029 352.499L70.7702 362.42L53.6029 372.351Z" fill="#D4ECFF"/>
<path d="M53.6028 392.203L36.4355 382.282V362.42L53.6028 372.351V392.203Z" fill="#5793CE"/>
<path d="M47.421 381.476L42.6172 378.705V373.146L47.421 375.926V381.476Z" fill="white"/>
<path opacity="0.5" d="M116.033 381.639L52.0622 344.647C50.6268 343.814 50.6268 341.733 52.0622 340.909L112.894 305.729L180.951 345.088C182.386 345.922 182.386 348.002 180.951 348.827L124.215 381.639C121.679 383.105 118.559 383.105 116.033 381.639Z" fill="url(#paint10_linear)"/>
<path d="M114.188 280.079C114.188 276.014 111.326 274.356 107.814 276.379L47.9874 310.906C47.0209 311.462 46.2362 312.824 46.2362 313.945C46.2362 315.067 47.0209 315.517 47.9874 314.961L107.814 280.433C109.403 279.513 110.695 280.261 110.695 282.101L110.685 288.802C111.843 288.725 113.011 288.725 114.188 288.744V280.079Z" fill="url(#paint11_linear)"/>
<path d="M47.957 327.02L107.784 305.183C111.306 303.151 114.167 298.186 114.176 294.121V288.753C112.999 288.734 111.832 288.734 110.674 288.811L110.664 296.144C110.664 297.975 109.373 300.218 107.784 301.138L47.957 322.974C46.9905 323.53 46.2058 324.892 46.2058 326.013C46.2058 327.125 46.9905 327.576 47.957 327.02Z" fill="#FE961C"/>
<path d="M46.6652 327.096L119.44 369.283L181.056 332.474L185.946 325.16L185.439 327.758L184.128 320.971L69.7463 325.342L49.5934 324.048L46.6652 327.096Z" fill="url(#paint12_linear)"/>
<path d="M49.0766 314.367L49.0574 323.339L119.392 364.107L121.296 355.556L49.0766 314.367Z" fill="url(#paint13_linear)"/>
<path d="M185.037 318.086L112.377 275.976L46.8662 314.146L46.7322 315.076L119.497 357.253L185.037 318.086Z" fill="url(#paint14_linear)"/>
<path d="M161.879 339.711L178.961 329.56C180.396 328.544 181.525 326.502 181.535 324.786L181.544 323.444C181.544 322.361 181.094 321.652 180.396 321.45L146.769 340.191L119.382 355.029L119.411 364.107L161.879 339.711Z" fill="white"/>
<path d="M121.822 355.863L49.6221 314.022L48.091 313.13L46.6939 312.315C46.4068 312.843 46.225 313.418 46.225 313.945C46.225 314.491 46.4164 314.884 46.7226 315.067L46.7321 315.076H46.7417L119.497 357.244L121.822 355.863Z" fill="url(#paint15_linear)"/>
<path d="M118.53 368.756L119.44 369.284L119.612 368.996L119.038 368.545L118.53 368.756Z" fill="white"/>
<path d="M118.559 356.708L119.487 357.244L119.258 356.736L118.559 356.708Z" fill="white"/>
<path d="M120.75 353.084L180.578 318.556C184.099 316.524 186.96 318.183 186.951 322.247L186.941 323.589C186.941 327.653 184.07 332.619 180.549 334.651L120.731 369.188C119.765 369.744 118.98 369.294 118.98 368.172C118.98 367.05 119.765 365.689 120.731 365.133L180.558 330.606C182.147 329.685 183.439 327.452 183.439 325.611L183.448 324.27C183.448 322.439 182.156 321.691 180.568 322.602L120.741 357.129C119.774 357.685 118.99 357.235 118.99 356.113C118.999 355.001 119.784 353.65 120.75 353.084Z" fill="url(#paint16_linear)"/>
<path d="M118.98 368.173C118.98 367.052 119.765 365.691 120.731 365.135L180.558 330.607C182.147 329.687 183.439 327.453 183.439 325.613L183.448 324.271C183.448 323.072 182.893 322.334 182.07 322.229C182.338 322.584 182.491 323.082 182.491 323.715L182.482 325.057C182.482 326.888 181.19 329.131 179.601 330.041L119.774 364.588C118.808 365.144 118.023 366.505 118.023 367.627C118.023 368.47 118.473 368.94 119.114 368.873C119.028 368.681 118.98 368.451 118.98 368.173Z" fill="white"/>
<path d="M119.001 356.123C119.001 355.002 119.786 353.64 120.752 353.084L180.579 318.557C182.091 317.684 183.488 317.493 184.579 317.886C183.412 316.889 181.622 316.841 179.622 318.001L119.795 352.528C118.829 353.084 118.044 354.446 118.044 355.567C118.044 356.411 118.494 356.88 119.135 356.813C119.049 356.621 119.001 356.391 119.001 356.123Z" fill="white"/>
<path d="M91.3248 318.92L124.339 299.873L152.97 316.456L119.956 335.513L91.3248 318.92Z" fill="white"/>
<path opacity="0.5" d="M172.961 411.058C186.176 418.698 207.601 418.698 220.817 411.058C234.032 403.419 234.032 391.024 220.817 383.384C207.601 375.745 186.176 375.745 172.961 383.384C159.746 391.024 159.746 403.419 172.961 411.058ZM185.889 390.861C191.965 387.343 201.812 387.343 207.889 390.861C213.965 394.379 213.965 400.073 207.889 403.581C201.812 407.099 191.965 407.099 185.889 403.581C179.822 400.073 179.822 394.379 185.889 390.861Z" fill="url(#paint17_linear)"/>
<path d="M225.812 378.86L213.745 379.052C212.855 377.892 211.582 376.799 209.936 375.841C203.295 372.006 192.865 371.709 185.63 374.949L178.453 368.191L167.411 368.364C167.956 368.009 168.521 367.654 169.104 367.309C184.453 358.433 209.334 358.433 224.683 367.309C227.506 368.939 229.802 370.76 231.592 372.696L225.812 378.86Z" fill="url(#paint18_linear)"/>
<path d="M167.401 350.794V368.355L178.444 368.182V350.621L167.401 350.794Z" fill="#F4A403"/>
<path d="M185.621 357.379V374.94L178.444 368.182V350.621L185.621 357.379Z" fill="url(#paint19_linear)"/>
<path d="M213.735 361.491V379.052L197.86 366.092L185.621 374.949V357.388L196.894 351.915C196.894 351.915 212.405 356.669 213.219 356.87C214.022 357.062 213.735 361.491 213.735 361.491Z" fill="url(#paint20_linear)"/>
<path d="M225.812 361.299V378.86L213.735 379.043V361.491L225.812 361.299Z" fill="url(#paint21_linear)"/>
<path d="M231.592 355.136V372.687L225.812 378.86V361.299L231.592 355.136Z" fill="#F4A403"/>
<path d="M225.814 361.299L213.747 361.491C212.857 360.331 211.584 359.238 209.938 358.279C203.297 354.445 192.867 354.148 185.632 357.388L178.455 350.63L167.412 350.802C167.958 350.448 168.523 350.093 169.106 349.748C184.455 340.872 209.335 340.872 224.685 349.748C227.508 351.378 229.804 353.199 231.594 355.135L225.814 361.299Z" fill="#FFC249"/>
<path d="M181.984 359.545V375.687L171.535 373.176C171.535 373.176 172.147 363.734 172.367 363.475C172.597 363.226 181.984 359.545 181.984 359.545Z" fill="#5793CE"/>
<path d="M189.889 375.678V393.239L188.759 394.447L181.391 390.191C181.391 390.191 182.53 376.79 182.664 376.521C182.807 376.253 189.889 375.678 189.889 375.678Z" fill="#2F80ED"/>
<path d="M175.669 371.153L181.984 377.106C176.721 381.276 177.343 387.152 183.85 390.919C185.63 391.954 187.688 392.721 189.888 393.248L183.362 400.217L189.152 405.671C181.802 404.818 174.798 402.757 169.104 399.46C155.908 391.83 154.071 380.126 163.563 371.355L175.669 371.153Z" fill="#396CAA"/>
<path d="M189.152 388.1V405.661L174.827 400.121L157.592 383.652L157.659 365.008L175.889 379.483L189.152 388.1Z" fill="#396CAA"/>
<path d="M175.67 353.592L181.986 359.545C176.722 363.715 177.344 369.591 183.852 373.358C185.631 374.393 187.689 375.16 189.89 375.687L183.364 382.656L189.153 388.11C181.804 387.257 174.799 385.196 169.105 381.899C155.909 374.269 154.072 362.565 163.565 353.794L175.67 353.592Z" fill="#D4ECFF"/>
<path d="M189.19 400.121L194.941 393.977C200.281 394.303 205.822 393.287 209.917 390.919C214.147 388.475 215.888 385.139 215.152 381.956L228.855 381.746L234.127 376.119C238.74 384.046 235.592 393.143 224.673 399.46C216.654 404.099 206.032 406.304 195.525 406.103L189.19 400.121Z" fill="#396CAA"/>
<path d="M195.535 388.523V406.084L236.185 383.519V365.949L230.252 368.355L195.535 388.523Z" fill="#396CAA"/>
<path d="M189.19 382.561V400.122L195.535 406.084V388.523L189.19 382.561Z" fill="#2F80ED"/>
<path d="M189.19 382.56L194.941 376.416C200.281 376.742 205.822 375.726 209.917 373.358C214.147 370.914 215.888 367.578 215.152 364.395L228.855 364.184L234.127 358.558C238.74 366.485 235.592 375.582 224.673 381.899C216.654 386.538 206.032 388.743 195.525 388.542L189.19 382.56Z" fill="#5793CE"/>
</g>
<defs>
<linearGradient id="paint0_linear" x1="118.179" y1="226.612" x2="290.09" y2="430.478" gradientUnits="userSpaceOnUse">
<stop stop-color="#8562BB"/>
<stop offset="1" stop-color="#461692"/>
</linearGradient>
<linearGradient id="paint1_linear" x1="287.317" y1="342.389" x2="360.261" y2="428.839" gradientUnits="userSpaceOnUse">
<stop stop-color="#8562BB"/>
<stop offset="1" stop-color="#461692"/>
</linearGradient>
<linearGradient id="paint2_linear" x1="273.303" y1="387.803" x2="291.271" y2="388.639" gradientUnits="userSpaceOnUse">
<stop stop-color="#F98905"/>
<stop offset="1" stop-color="#FF7628"/>
</linearGradient>
<linearGradient id="paint3_linear" x1="286.347" y1="385.949" x2="291.663" y2="386.102" gradientUnits="userSpaceOnUse">
<stop stop-color="#F98905"/>
<stop offset="1" stop-color="#FF7628"/>
</linearGradient>
<linearGradient id="paint4_linear" x1="249.967" y1="302.725" x2="276.689" y2="334.417" gradientUnits="userSpaceOnUse">
<stop stop-color="#8562BB"/>
<stop offset="1" stop-color="#461692"/>
</linearGradient>
<linearGradient id="paint5_linear" x1="248.692" y1="296.351" x2="294.319" y2="299.035" gradientUnits="userSpaceOnUse">
<stop stop-color="#F98905"/>
<stop offset="1" stop-color="#FF7628"/>
</linearGradient>
<linearGradient id="paint6_linear" x1="248.692" y1="291.761" x2="294.292" y2="294.668" gradientUnits="userSpaceOnUse">
<stop stop-color="#F98905"/>
<stop offset="1" stop-color="#FF7628"/>
</linearGradient>
<linearGradient id="paint7_linear" x1="138.501" y1="214.311" x2="161.093" y2="241.093" gradientUnits="userSpaceOnUse">
<stop stop-color="#8562BB"/>
<stop offset="1" stop-color="#461692"/>
</linearGradient>
<linearGradient id="paint8_linear" x1="156.176" y1="199.749" x2="173.177" y2="200.111" gradientUnits="userSpaceOnUse">
<stop stop-color="#F98905"/>
<stop offset="1" stop-color="#FF7628"/>
</linearGradient>
<linearGradient id="paint9_linear" x1="35.1999" y1="384.497" x2="58.709" y2="412.381" gradientUnits="userSpaceOnUse">
<stop stop-color="#8562BB"/>
<stop offset="1" stop-color="#461692"/>
</linearGradient>
<linearGradient id="paint10_linear" x1="46.2695" y1="303.948" x2="137.705" y2="410.648" gradientUnits="userSpaceOnUse">
<stop stop-color="#8562BB"/>
<stop offset="1" stop-color="#461692"/>
</linearGradient>
<linearGradient id="paint11_linear" x1="36.9251" y1="268.43" x2="116.71" y2="272.634" gradientUnits="userSpaceOnUse">
<stop stop-color="#FF9A22"/>
<stop offset="1" stop-color="#F98700"/>
</linearGradient>
<linearGradient id="paint12_linear" x1="27.58" y1="312.344" x2="190.29" y2="326.777" gradientUnits="userSpaceOnUse">
<stop stop-color="#FF9A22"/>
<stop offset="1" stop-color="#F98700"/>
</linearGradient>
<linearGradient id="paint13_linear" x1="49.0574" y1="325.913" x2="123.366" y2="329.893" gradientUnits="userSpaceOnUse">
<stop stop-color="#F98905"/>
<stop offset="1" stop-color="#FF7628"/>
</linearGradient>
<linearGradient id="paint14_linear" x1="46.7322" y1="294.844" x2="188.849" y2="303.761" gradientUnits="userSpaceOnUse">
<stop stop-color="#F98905"/>
<stop offset="1" stop-color="#FF7628"/>
</linearGradient>
<linearGradient id="paint15_linear" x1="35.8662" y1="304.292" x2="124.637" y2="308.888" gradientUnits="userSpaceOnUse">
<stop stop-color="#FF9A22"/>
<stop offset="1" stop-color="#F98700"/>
</linearGradient>
<linearGradient id="paint16_linear" x1="118.98" y1="329.699" x2="188.935" y2="333.087" gradientUnits="userSpaceOnUse">
<stop stop-color="#F98905"/>
<stop offset="1" stop-color="#FF7628"/>
</linearGradient>
<linearGradient id="paint17_linear" x1="160.614" y1="376.749" x2="206.957" y2="431.713" gradientUnits="userSpaceOnUse">
<stop stop-color="#8562BB"/>
<stop offset="1" stop-color="#461692"/>
</linearGradient>
<linearGradient id="paint18_linear" x1="167.411" y1="364.923" x2="232.543" y2="373.3" gradientUnits="userSpaceOnUse">
<stop stop-color="#F98905"/>
<stop offset="1" stop-color="#FF7628"/>
</linearGradient>
<linearGradient id="paint19_linear" x1="178.444" y1="356.267" x2="185.847" y2="356.347" gradientUnits="userSpaceOnUse">
<stop stop-color="#F98905"/>
<stop offset="1" stop-color="#FF7628"/>
</linearGradient>
<linearGradient id="paint20_linear" x1="185.621" y1="358.214" x2="214.633" y2="359.325" gradientUnits="userSpaceOnUse">
<stop stop-color="#F98905"/>
<stop offset="1" stop-color="#FF7628"/>
</linearGradient>
<linearGradient id="paint21_linear" x1="213.735" y1="365.418" x2="226.186" y2="365.731" gradientUnits="userSpaceOnUse">
<stop stop-color="#F98905"/>
<stop offset="1" stop-color="#FF7628"/>
</linearGradient>
<clipPath id="clip0">
<rect width="382.953" height="342.076" fill="white" transform="translate(36.4354 74.7157)"/>
</clipPath>
</defs>
</svg>
