<svg width="745" height="322" viewBox="0 0 745 322" fill="none" xmlns="http://www.w3.org/2000/svg">
<path d="M161.442 124.349H449.081L507.577 321.373H219.951L161.442 124.349Z" fill="#3B2D51"/>
<path d="M193.058 92.5503H337.535L346.825 198.025L251.937 296.614L193.058 92.5503Z" fill="#8B54B2"/>
<path d="M189.373 96.449H333.864L343.154 201.913L248.266 300.513L189.373 96.449Z" fill="#634C84"/>
<path d="M190.64 101.497H335.118L387.666 285.841L249.519 305.561L190.64 101.497Z" fill="#E2D5AF"/>
<path d="M322.077 110.187C296.357 109.669 274.749 108.29 274.749 103.842C274.749 103.655 274.817 103.479 274.872 103.303H330.367L322.077 110.187Z" fill="#F7F0DA"/>
<path d="M333.834 100.492C316.199 102.587 307.498 109.44 310.005 118.066C313.184 129.056 333.834 100.492 333.834 100.492Z" fill="#3B2D51"/>
<path d="M173.588 116.583H318.078L376.957 320.647H232.466L173.588 116.583Z" fill="#634C84"/>
<path d="M145.481 116.583H289.972L348.851 320.647H204.36L145.481 116.583Z" fill="#4C396B"/>
<path d="M310.621 130.757L362.293 309.813H235.519L183.861 130.757H310.621ZM237.602 306.859H357.319L308.539 133.712H188.821L237.602 306.859Z" fill="#EADDBE"/>
<path opacity="0.6" d="M309.775 92.6423L305.884 96.1675L306.857 101.279L289.975 116.613H267.887L262.653 92.6423H309.775Z" fill="#C94343"/>
<path d="M73.6653 66.4749H224.528C229.214 66.4749 233.078 69.2327 233.366 72.7682L252.563 314.271C252.864 318.118 248.822 321.373 243.725 321.373H81.6127C76.8032 321.373 72.8843 318.47 72.761 314.841L64.8136 73.3385C64.6903 69.5749 68.6777 66.4749 73.6653 66.4749Z" fill="#F24C5C"/>
<path d="M160.309 66.4644H219.49C221.326 66.4644 222.367 69.2223 221.86 72.7578L187.166 314.271C186.618 318.118 184.453 321.373 182.452 321.373H118.86C116.969 321.373 115.941 318.47 116.53 314.841L155.623 73.3384C156.24 69.5748 158.35 66.4644 160.309 66.4644Z" fill="#D63444"/>
<path d="M86.1269 312.934H216.08V312.115L215.806 77.1333H78.8235C76.316 77.1333 73.9729 77.8798 72.2327 79.238C70.4788 80.5962 69.5608 82.3795 69.6156 84.2769L76.9189 306.132C77.0559 309.948 81.0981 312.934 86.1269 312.934ZM213.915 311.296H86.1269C82.2765 311.296 79.1661 309.015 79.0702 306.091L71.7669 84.2354C71.7121 82.7839 72.4246 81.4153 73.7674 80.3785C75.1102 79.3417 76.9052 78.7715 78.8235 78.7715H213.641L213.915 311.296Z" fill="#EADDBE"/>
<path d="M221.596 66.4644H269.746L275.487 321.373H221.897L221.596 66.4644Z" fill="#D63444"/>
<path d="M269.75 66.4644L269.846 70.6427L228.218 70.9641L225.259 321.373H221.902L221.6 66.4644H269.75Z" fill="#B72036"/>
<path d="M128.581 158.47C128.581 158.47 92.448 238.179 92.3795 240.968C92.3247 243.757 142.489 309.937 142.489 309.937L143.681 309.667L118.318 242.814L139.762 203.021L128.581 158.47Z" fill="#6D3E4C"/>
<path d="M133.437 177.848L147.482 197.713L119.927 242.12L143.673 309.678L143.44 309.73C133.985 293.4 108.855 244.442 108.896 242.12C108.951 240.201 122.763 201.58 133.437 177.848Z" fill="#592E3C"/>
<path d="M175.97 168.538C160.596 224.049 115.173 318.491 115.173 318.491H113.83L131.945 197.963L122.956 191.514L128.081 158.865C128.081 158.865 179.218 156.853 175.97 168.538Z" fill="#6D3E4C"/>
<path d="M169.253 182.637C148.124 167.769 140.602 168.184 134.531 169.988C128.475 171.792 123.145 170.403 123.145 170.403L126.077 161.372L168.513 159.703L169.253 182.637Z" fill="#592E3C"/>
<path d="M167.924 161.52C173.391 162.992 176.885 165.2 175.967 168.539C160.593 224.049 115.17 318.492 115.17 318.492H113.923C121.226 299.062 153.92 211.203 167.924 161.52Z" fill="#592E3C"/>
<path d="M131.366 199.694L143.904 196.044L131.229 195.837L120.212 188.963L131.366 199.694Z" fill="#592E3C"/>
<path d="M144.28 79.6111C120.507 94.3545 111.641 122.296 111.641 122.296L65.848 120.762L63.5734 128.994C63.5734 128.994 101.775 145.842 122.014 141.249C142.252 136.656 144.28 79.6111 144.28 79.6111Z" fill="#FFB94A"/>
<path d="M64.2852 129.128C54.5016 131.109 47.897 129.336 45.1428 126.837C42.3886 124.338 37.8394 117.869 42.3886 117.558C46.9378 117.247 66.3542 123.187 66.3542 123.187L64.2852 129.128Z" fill="#FF9566"/>
<path d="M107.914 128.569C121.301 125.531 115.998 100.492 144.28 79.6111C144.28 79.6111 142.252 136.656 122.014 141.249C101.775 145.842 63.5734 128.994 63.5734 128.994L64.8614 124.349C77.7827 126.485 93.924 131.742 107.914 128.569Z" fill="#FF9239"/>
<path d="M60.9824 130.248C60.9824 130.601 67.4636 119.746 67.4636 119.746L80.1384 120.43L78.6723 127.553L74.8082 127.667L79.3985 129.689L74.4382 135.629L60.9824 130.248Z" fill="#EADDBE"/>
<path d="M173.61 73.4835C193.519 92.5711 187.203 118.439 182.503 130.757C177.816 143.064 185.408 167.905 172.911 178.885C172.911 178.885 154.879 163.945 142.231 165.199C129.598 166.444 126.528 171.306 123.226 169.16C119.91 167.014 124.131 137.185 122.02 128.984C119.924 120.772 123.048 98.6157 137.093 85.7697C151.152 72.9133 173.61 73.4835 173.61 73.4835Z" fill="#FFB94A"/>
<path d="M176.23 83.1245C178.436 83.1245 180.559 83.9747 182.574 85.5195C191.055 102.326 186.26 120.895 182.505 130.766C177.819 143.073 185.41 167.914 172.914 178.894C172.914 178.894 164.185 171.668 154.607 167.686C153.621 160.761 153.073 153.254 153.073 145.395C153.086 110.994 163.445 83.1245 176.23 83.1245Z" fill="#FF6D2C"/>
<path d="M159.775 58.7503C173.134 42.9183 167.434 36.4694 167.434 36.4694C167.434 36.4694 174.683 28.1645 167.325 20.3367C167.325 20.3367 166.736 8.63111 148.183 6.00799C148.183 6.00799 135.96 -3.96608 126.245 1.7882C126.245 1.7882 114.913 -5.02363 109.542 8.28896C104.171 21.6016 110.912 21.5082 110.912 21.5082C110.912 21.5082 100.293 38.7503 117.434 42.9701C134.59 47.1796 159.775 58.7503 159.775 58.7503Z" fill="#7A4939"/>
<path d="M118.621 43.1153C118.621 43.1153 131.761 42.6176 135.749 33.5041C135.749 33.5041 147.875 26.2153 139.695 13.3486C139.695 13.3486 141.709 5.29261 137.051 0.512939C143.189 1.9541 148.191 6.00801 148.191 6.00801C166.743 8.63113 167.333 20.3367 167.333 20.3367C174.691 28.1645 167.442 36.4693 167.442 36.4693C167.442 36.4693 173.142 42.9183 159.783 58.7503C159.783 58.7503 135.653 47.6668 118.552 43.2397C118.594 43.1567 118.621 43.1153 118.621 43.1153Z" fill="#603428"/>
<path d="M147.215 77.4957L173.619 73.4937C152.874 80.9586 133.033 94.7377 133.033 94.7377C133.033 94.7377 139.87 80.8861 147.215 77.4957Z" fill="#EADDBE"/>
<path d="M173.619 73.4827L154.395 37.6924L137.705 54.727L144.776 80.1908L173.619 73.4827Z" fill="#FFB882"/>
<path d="M30.6128 61.2178L72.3502 120.17L140.41 124.764L140.149 125.717H47.316L0.00177002 66.9617L30.6128 61.2178Z" fill="#DBCCAD"/>
<path d="M72.3503 120.17L140.41 124.763L140.149 125.717H47.3163L68.5959 123.426L72.3503 120.17Z" fill="#D1BB93"/>
<path d="M140.153 125.718H47.3196L68.5993 123.426L140.153 125.718Z" fill="#BA9E70"/>
<path d="M21.773 62.8765L68.6763 123.426L47.3143 125.717L-3.8147e-05 66.9615L21.773 62.8765Z" fill="#EFE3CA"/>
<path d="M21.7798 62.8765L47.3213 125.717L0.00655365 66.9615L21.7798 62.8765Z" fill="#F9F0E1"/>
<path d="M181.699 133.628C178.862 146.484 184.398 168.288 173.203 178.594C164.776 152.062 151.362 142.959 122.464 144.825C122.697 138.843 122.806 133.234 122.231 129.926C138.125 128.267 164.913 126.889 181.699 133.628Z" fill="#FF6D2C"/>
<path d="M156.854 122.659C158.964 98.7294 168.734 72.3945 174.023 73.732C180.271 75.3183 190.726 85.3442 192.576 99.704C194.275 112.83 182.381 142.109 173.653 147.47C164.924 152.83 115.089 126.122 101.866 121.726L99.4819 110.819C117.802 110.435 141.384 116.2 156.854 122.659Z" fill="#FFB94A"/>
<path d="M153.184 121.206C137.673 116.292 117.147 112.601 101.019 113.534L103.526 122.326C102.937 122.098 102.375 121.891 101.868 121.735L99.4842 110.828C116.407 110.465 137.824 115.359 153.184 121.206Z" fill="#FF9239"/>
<path d="M168.498 138.533C177.226 133.172 187.38 100.741 185.681 87.6151C185.379 85.2823 184.831 83.0738 184.132 80.9795C188.106 85.5518 191.573 92.0008 192.573 99.7042C194.272 112.83 184.105 145.262 175.39 150.622C166.662 155.982 115.1 126.122 101.877 121.716L100.411 114.976C118.375 122.41 160.633 143.364 168.498 138.533Z" fill="#FF9239"/>
<path d="M96.81 321.342H115.349C115.349 321.342 117.911 317.879 114.129 316.448C109.224 314.592 96.81 321.342 96.81 321.342Z" fill="#F2E9CE"/>
<path d="M131.736 321.342H142.177L146.809 310.497C146.809 310.497 142.424 304.556 140.191 307.687C138.82 309.616 139.643 315.494 139.615 317.92C136.011 319.901 131.736 321.342 131.736 321.342Z" fill="#F2E9CE"/>
<path d="M330.709 96.6038C333.463 102.959 313.211 114.945 308.114 116.614L323.268 119.32L338.56 102.327L337.409 92.498L330.709 96.6038Z" fill="#634C84"/>
<path d="M314.732 119.673C330.504 112.861 335.875 101.321 337.424 92.498L396.152 296.552C393.699 306.806 387.752 315.266 376.215 320.854L314.732 119.673Z" fill="#503D70"/>
<path d="M239.779 168.32H262.319L265.019 304.162H239.916L239.779 168.32Z" fill="#EADDBE"/>
<path d="M261.441 84.2868H238.887L237.216 77.9934H262.304L261.441 84.2868Z" fill="#EADDBE"/>
<path d="M261.441 98.0458H238.887L237.216 91.7524H262.304L261.441 98.0458Z" fill="#EADDBE"/>
<path d="M81.5861 112.529C81.175 115.826 82.2301 117.91 83.1892 118.294C84.1621 118.667 87.4505 117.454 87.9986 116.407C88.5604 115.35 81.956 109.616 81.5861 112.529Z" fill="#FF9566"/>
<path d="M82.6574 110.611C82.9452 116.801 83.7399 117.36 84.9732 117.92C86.2064 118.48 90.0295 117.744 90.468 116.78C90.9065 115.805 90.1802 113.369 89.1662 113.576C88.1522 113.773 86.919 113.835 86.919 113.835L82.6574 110.611Z" fill="#FFB882"/>
<path d="M85.9616 108.828C87.6607 106.34 100.842 106.526 107.858 111.472L103.542 120.368C97.4853 118.388 92.2236 114.914 88.4006 115.205C84.5777 115.495 84.2625 111.317 85.9616 108.828Z" fill="#FFB882"/>
<path d="M87.461 111.938C87.7487 118.128 88.5434 118.688 89.7766 119.248C91.0098 119.808 94.8328 119.071 95.2712 118.107C95.7097 117.133 94.9835 114.696 93.9695 114.903C92.9555 115.1 91.7223 115.163 91.7223 115.163L87.461 111.938Z" fill="#FFB882"/>
<path d="M88.658 107.573C84.2321 108.34 81.0668 109.927 79.6006 111.471C78.1345 113.016 76.2983 116.966 76.2435 117.868C76.1887 118.77 78.7237 119.911 79.2581 118.719C79.8062 117.537 81.4916 113.991 81.9575 113.846C82.4233 113.7 86.9315 111.896 87.137 111.928C87.3562 111.948 88.658 107.573 88.658 107.573Z" fill="#FFB882"/>
<path d="M99.4168 121.312C99.4168 121.726 105.898 109.015 105.898 109.015L118.573 109.813L117.106 118.149L113.242 118.284L117.833 120.648L112.872 127.595L99.4168 121.312Z" fill="#EADDBE"/>
<path d="M175.504 73.9489L171.832 69.3662L142.892 77.4947L144.646 81.6627L175.504 73.9489Z" fill="#EADDBE"/>
<path opacity="0.6" d="M143.246 80.2739C143.438 80.0977 143.644 79.9318 143.836 79.7659L142.89 77.4953L143.945 77.205L140.753 65.7068C145.548 58.895 152.235 52.104 159.73 47.625L171.459 69.4704L171.829 69.3668L175.502 73.9494L175.036 74.0635C177.653 75.0277 180.818 77.2879 183.75 80.5538C167.13 80.0769 144.055 92.56 135.587 88.7031C134.956 88.4128 134.463 87.9981 134.066 87.4693C136.834 84.8981 139.889 82.4512 143.246 80.2739Z" fill="#C94343"/>
<path d="M151.222 27.2424C161.334 46.0086 161.225 63.5306 161.142 64.8888C161.06 66.247 144.864 75.3191 139.301 76.1485C139.301 76.1485 119.556 57.2683 115.459 41.4777C111.362 25.6872 116.651 21.7888 122.913 20.8142C129.175 19.8396 147.303 19.964 151.222 27.2424Z" fill="#FFB882"/>
<path d="M154.127 51.4821C140.411 26.6507 136.561 14.6652 148.249 19.1857C159.937 23.7062 159.128 47.874 159.128 47.874L154.127 51.4821Z" fill="#603428"/>
<path d="M154.252 43.2083C153.909 37.34 162.624 32.0626 164.213 38.3871C165.803 44.7116 160.555 54.1155 158.458 52.2078C156.362 50.2897 154.361 45.1782 154.252 43.2083Z" fill="#FFB882"/>
<path d="M156.115 43.4883C155.896 39.7973 161.376 36.4795 162.377 40.4609C163.377 44.4422 160.075 50.352 158.759 49.1493C157.444 47.9362 156.183 44.7221 156.115 43.4883Z" fill="#DB5B3E"/>
<path d="M157.008 46.008C156.871 43.5819 160.46 41.4046 161.118 44.0174C161.776 46.6301 159.597 50.518 158.734 49.7301C157.884 48.9421 157.049 46.8271 157.008 46.008Z" fill="#FFB882"/>
<path d="M121.308 45.842C120.39 44.2453 120.636 42.6693 121.842 42.3272C123.048 41.9954 124.761 43.0218 125.679 44.6289C126.583 46.2256 126.35 47.8016 125.144 48.1334C123.939 48.4755 122.212 47.4491 121.308 45.842Z" fill="#4F3131"/>
<path d="M130.134 40.7417C128.311 40.2648 127.489 57.4136 128.627 59.2902C129.188 60.2233 136.848 57.0196 136.848 57.0196C136.848 57.0196 130.476 40.8246 130.134 40.7417Z" fill="#FFB882"/>
<path d="M129.601 41.3643C128.766 45.0242 127.943 57.3414 128.916 58.907C129.355 59.612 134.192 57.808 136.165 56.9889C136.302 57.3414 136.384 57.5384 136.384 57.5384C136.384 57.5384 128.341 61.2502 127.806 60.3171C126.779 58.5026 128.135 42.2974 129.601 41.3643Z" fill="#EA7B59"/>
<path d="M134.095 41.7574C133.013 40.2022 133.081 38.6159 134.232 38.2116C135.397 37.7969 137.206 38.7196 138.288 40.2645C139.371 41.8093 139.316 43.406 138.151 43.8207C137 44.2354 135.178 43.3023 134.095 41.7574Z" fill="#4F3131"/>
<path d="M123.304 30.4254C123.934 29.0464 134.718 28.5695 137.363 28.7769C140.007 28.9842 140.555 30.4461 140.651 31.9806C140.747 33.5047 129.388 36.8535 125.428 35.1013C123.606 34.2926 122.674 31.8043 123.304 30.4254Z" fill="#7A4939"/>
<path d="M121.243 37.7969C121.667 40.5236 115.625 41.8404 114.2 40.7206C112.775 39.5905 111.555 38.336 112.185 37.2059C112.829 36.0758 116.693 32.4056 118.201 33.152C119.708 33.9089 121.051 36.5424 121.243 37.7969Z" fill="#7A4939"/>
<path d="M141.629 64.3915C141.437 64.1115 142.355 63.4166 143.657 62.8462C144.973 62.2758 146.192 62.0372 146.384 62.3276C146.576 62.6076 145.658 63.3025 144.356 63.873C143.041 64.4434 141.821 64.6819 141.629 64.3915Z" fill="#EA7B59"/>
<path d="M148.331 56.4488C148.085 56.1274 147.934 55.9304 147.934 55.9304C144.549 59.6111 142.138 61.778 134.382 64.7018C134.423 64.7018 134.739 64.8884 135.191 65.1683C139.822 63.862 147.537 59.0616 148.331 56.4488Z" fill="#EA7B59"/>
<path d="M42.7857 123.498C39.0175 120.512 35.8933 114.395 36.8113 112.238C37.7294 110.082 40.2096 110.922 40.9495 111.824C41.6895 112.726 42.5117 119.465 42.9639 121.062C43.4298 122.658 42.7857 123.498 42.7857 123.498Z" fill="#FF9566"/>
<path d="M45.5536 126.412C42.4432 124.183 40.6482 119.611 42.0458 118.004C43.4297 116.396 45.7317 117.019 46.2661 117.693C46.8005 118.366 46.1565 123.405 46.2661 124.598C46.3757 125.79 45.5536 126.412 45.5536 126.412Z" fill="#FF9566"/>
<path d="M581.007 133.12H442.969L423.471 321.373H579.39L581.007 133.12Z" fill="#B7BF47"/>
<path d="M567.084 237.725L515.248 133.153H493.653L502.039 151.992L494.42 150.841L487.555 243.49H463.672L450.97 279.83H440.817L431.664 302.898L427.854 321.157H581.046L567.084 237.725Z" fill="#999B32"/>
<g opacity="0.58">
<path opacity="0.58" d="M575.922 139.664L452.684 138.793L439.036 314.293L574.47 314.843L575.922 139.664ZM454.479 140.296L574.018 141.136L572.552 313.308L441.091 312.769L454.479 140.296Z" fill="#FFF9F1"/>
</g>
<path d="M443.777 133.12H408.904L393.667 321.373H430.266L443.777 133.12Z" fill="#A5A53A"/>
<path opacity="0.42" d="M429.46 161.976H412.401L401.891 294.832H419.8L429.46 161.976Z" fill="#FFF9F1"/>
<path d="M440.866 133.12L427.465 321.373H432.658L446.155 133.12H440.866Z" fill="#999B32"/>
<path d="M583.391 218.886C626.156 229.14 731.856 242.587 731.856 242.587L731.253 243.956H566.825L583.391 218.886Z" fill="#7C3552"/>
<path d="M573.43 231.577L566.825 243.957H731.253L731.281 243.884L573.43 231.577Z" fill="#602540"/>
<path d="M576.259 200.731C542.661 185.791 539.825 182.255 533.878 172.945C527.945 163.634 522.971 144.402 535.728 143.8C548.485 143.189 571.45 175.558 581.425 174.915C591.4 174.272 594.826 208.984 576.259 200.731Z" fill="#EADDBE"/>
<path d="M584.266 175.184C582.224 178.201 574.277 181.312 569.782 177.942C550.942 163.81 548.53 150.84 538.87 146.993C537.801 146.568 529.785 147.574 529.292 146.62C525.483 152.685 529.401 165.345 533.882 172.364C539.815 181.674 542.652 185.21 576.263 200.15C592.926 207.553 591.87 180.389 584.266 175.184Z" fill="#D8C5A0"/>
<path d="M547.514 153.143C540.142 143.003 530.386 139.022 530.386 139.022C530.386 139.022 503.886 132.759 495.158 149.618C486.429 166.476 516.232 218.658 521.357 228.456C526.481 238.254 532.195 241.447 561.107 239.851L585.497 219.799C558.092 203.169 552.351 159.789 547.514 153.143Z" fill="#EADDBE"/>
<path d="M561.337 190.332C563.324 201.623 546.443 213.163 540.153 212.8C530.096 212.209 516.764 183.883 505.857 160.068C502.869 153.536 501.486 147.699 501.253 142.67C498.827 144.371 496.703 146.621 495.155 149.617C486.427 166.475 516.229 218.658 521.354 228.456C526.479 238.254 532.192 241.447 561.104 239.85L585.494 219.798C574.286 212.997 566.709 201.737 561.337 190.332Z" fill="#D8C5A0"/>
<path d="M558.397 169.213L604.464 165.802L650.545 171.266L602.395 173.329L558.096 170.509L558.397 169.213Z" fill="#DBC8A2"/>
<path d="M611.372 166.621L604.466 165.802L558.398 169.213L558.097 170.509L565.03 170.955L611.372 166.621Z" fill="#D3BB92"/>
<path d="M616.21 110.883L604.467 165.802L650.548 171.266L665.607 122.277L616.21 110.883Z" fill="#EADDBE"/>
<path d="M616.21 110.883L650.548 171.266L665.607 122.277L616.21 110.883Z" fill="#F4E8CE"/>
<path d="M620.074 111.774L616.21 110.883L604.467 165.802L609.112 166.352L620.074 111.774Z" fill="#DBC8A2"/>
<path d="M529.816 202.038C500.932 182.246 499.068 180.151 495.752 170.125C492.436 160.1 492.738 140.504 505.385 141.873C518.032 143.241 531.584 176.968 541.518 177.87C551.466 178.783 545.779 212.977 529.816 202.038Z" fill="#EADDBE"/>
<path d="M541.531 177.87C535.228 177.29 527.473 163.511 519.402 153.153C514.757 147.191 530.405 177.341 540.339 178.254C548.136 178.969 546.3 200.182 537.434 203.987C547.327 201.665 549.671 178.617 541.531 177.87Z" fill="#D8C5A0"/>
<path d="M529.952 186.672C501.068 166.879 499.232 162.971 495.929 152.945C495.614 151.981 495.326 150.923 495.08 149.803C493.203 156.045 493.915 164.547 495.765 170.114C499.081 180.14 500.903 184.039 529.788 203.842C543.463 213.204 549.601 188.165 544.847 180.202C542.339 186.921 537.201 191.649 529.952 186.672Z" fill="#D8C5A0"/>
<path d="M582.238 176.262C599.859 171.12 636.308 171.98 636.308 171.98L631.731 176.791C631.731 176.791 589.473 203.613 579.306 200.69C568.714 197.641 575.072 178.346 582.238 176.262Z" fill="#FF9566"/>
<path d="M529.484 176.513C539.048 164.133 560.451 153.019 560.451 153.019L570.138 158.057C570.138 158.057 547.845 203.096 537.842 204.755C527.839 206.414 525.688 181.427 529.484 176.513Z" fill="#FFB882"/>
<path d="M537.677 189.502C532.882 190.301 529.894 184.971 528.497 178.668C526.222 186.371 528.88 206.236 537.842 204.754C547.844 203.095 570.138 158.056 570.138 158.056C570.138 158.056 544.309 188.393 537.677 189.502Z" fill="#FF9566"/>
<path d="M574.433 76.8132C574.433 76.8132 574.596 77.4978 574.771 78.6179C574.758 77.5392 574.433 76.8132 574.433 76.8132Z" fill="#CE5230"/>
<path d="M574.774 78.6166C574.788 79.529 574.582 80.6902 573.76 81.9448C571.952 84.6819 562.237 85.7084 566.991 73.7436C571.732 61.7789 558.181 60.2444 558.181 60.2444C558.181 60.2444 566.758 65.8846 556.824 68.9639C546.89 72.0433 551.631 62.2973 541.464 61.1049C531.297 59.9126 528.145 71.5248 528.145 71.5248C528.145 71.5248 524.076 64.3501 509.853 68.4455C495.63 72.5513 504.879 81.0946 504.879 81.0946C504.879 81.0946 491.56 82.8053 490.656 96.1386C489.751 109.472 499.466 104.516 499.466 104.516C497.891 112.717 507.14 116.481 507.14 116.481C507.14 116.481 509.62 119.902 511.209 128.611L551.631 100.587C577.172 105.947 575.761 85.0033 574.774 78.6166Z" fill="#7A4939"/>
<path d="M545.861 96.3362C527.87 89.9288 511.126 82.0387 514.634 68.581C514.743 68.1663 514.908 67.7723 515.045 67.3679C513.483 67.5545 511.756 67.8863 509.838 68.4462C495.615 72.5519 504.864 81.0952 504.864 81.0952C504.864 81.0952 491.545 82.8059 490.641 96.1289C489.736 109.462 499.451 104.506 499.451 104.506C497.876 112.707 507.125 116.471 507.125 116.471C507.125 116.471 509.605 119.892 511.194 128.602L551.616 100.577C565.017 103.397 570.991 98.9801 573.512 93.2155C568.1 99.0319 563.14 102.495 545.861 96.3362Z" fill="#603428"/>
<path d="M515.481 112.022L506.451 139.881C515.645 140.877 523.894 144.62 531.293 150.82L535.582 120.908L515.481 112.022Z" fill="#FFB882"/>
<path d="M607.48 174.23L596.642 170.581C573.156 175.371 535.214 233.474 535.214 233.474C535.214 233.474 544.847 243.728 555.686 243.728C570.744 243.728 583.09 243.728 583.09 243.728L597.245 193.826L626.458 241.903L628.87 241.219C628.856 241.219 613.208 184.256 607.48 174.23Z" fill="#7C3552"/>
<path d="M595.872 177.435C595.872 177.435 581.224 184.361 569.002 190.344C551.298 208.85 535.212 233.475 535.212 233.475C535.212 233.475 544.844 243.729 555.683 243.729C570.742 243.729 583.088 243.729 583.088 243.729L597.242 193.827L626.455 241.904L627.73 241.541L595.872 177.435Z" fill="#602540"/>
<path d="M465.996 244.776H584.247C605.171 244.776 611.186 278.462 590.263 278.462H472.012C482.7 273.931 481.22 250.126 465.996 244.776Z" fill="#CEB995"/>
<path d="M582.491 243.117H702.126C725.886 242.578 728.517 279.592 704.743 280.131H585.108C605.483 279.664 602.866 242.65 582.491 243.117Z" fill="#FFB94A"/>
<path d="M464.941 243.117H699.099L700.086 246.621H465.927C464.475 246.621 463.077 245.833 462.803 244.869C462.529 243.905 463.488 243.117 464.941 243.117Z" fill="#FFB94A"/>
<path d="M467.3 277.082H701.048L702.103 280.131H468.355C466.903 280.131 465.492 279.446 465.204 278.606C464.902 277.766 465.848 277.082 467.3 277.082Z" fill="#FFB94A"/>
<path d="M463.926 243.116H588.864L589.385 246.62H464.447C463.666 246.62 462.926 245.832 462.789 244.868C462.638 243.904 463.145 243.116 463.926 243.116Z" fill="#EF7335"/>
<path d="M465.189 277.081H589.907L590.469 280.13H465.751C464.983 280.13 464.23 279.446 464.065 278.605C463.901 277.765 464.408 277.081 465.189 277.081Z" fill="#EF7335"/>
<path d="M577.064 245.864H696.699C720.459 245.408 723.09 276.927 699.317 277.383H579.682C608.635 275.963 606.017 244.444 577.064 245.864Z" fill="#EF7335"/>
<path d="M580.303 247.025L685.975 247.419C707.241 246.983 709.585 276.439 688.318 276.875H581.262C599.5 276.501 598.527 246.652 580.303 247.025Z" fill="#DDCBA6"/>
<path d="M595.193 251.008H679.27C695.974 250.686 697.81 272.967 681.107 273.288H597.029C611.362 273.009 609.512 250.728 595.193 251.008Z" fill="#EADDBE"/>
<path d="M561.982 279.53H730.849C741.318 279.53 741.455 321.375 730.986 321.375H562.119C575.657 321.375 575.52 279.53 561.982 279.53Z" fill="#5E85BC"/>
<path d="M440.621 284.452H561.763C583.194 284.452 583.303 316.458 561.859 316.458H440.717C452.474 312.145 455.255 289.522 440.621 284.452Z" fill="#DDCBA6"/>
<path d="M533.349 310.082C549.929 310.082 549.847 290.808 533.267 290.808H448.367C451.656 296.541 451.149 304.431 447.874 310.082H533.349Z" fill="#EADDBE"/>
<path d="M441.824 279.528H581.478L581.505 286.91H441.851C440.056 286.91 438.604 285.262 438.59 283.219C438.576 281.177 440.029 279.528 441.824 279.528Z" fill="#4B6F9B"/>
<path d="M441.94 313.991H581.594L581.622 321.373H441.967C440.172 321.373 438.72 319.725 438.706 317.682C438.693 315.64 440.145 313.991 441.94 313.991Z" fill="#4B6F9B"/>
<path d="M562.119 321.374H585.399C593.415 313.473 593.333 287.418 585.262 279.528H561.982C575.52 279.528 575.657 321.374 562.119 321.374Z" fill="#4B6F9B"/>
<path d="M723.832 300.607C723.832 292.665 722.119 283.386 717.282 283.386H596.88V284.91C600.511 284.91 603.252 291.639 603.252 300.576C603.252 309.368 600.552 315.994 596.976 315.994V317.518H717.378C722.147 317.518 723.832 308.404 723.832 300.607ZM605.074 300.576C605.074 294.19 603.663 287.761 600.593 284.91H717.282C719.886 284.91 722.01 291.95 722.01 300.607C722.01 310.239 719.653 315.994 717.378 315.994H600.676C603.69 313.173 605.074 306.849 605.074 300.576Z" fill="#DDCBA6"/>
<path d="M648.552 243.044H625.518C625.518 243.044 622.298 240.224 626.368 238.689C630.424 237.155 648.552 243.044 648.552 243.044Z" fill="#F4E6C9"/>
<path d="M744.572 229.887L733.747 245.273C733.747 245.273 728.951 246.092 729.061 242.66C729.184 239.218 744.572 229.887 744.572 229.887Z" fill="#F4E6C9"/>
<path opacity="0.6" d="M531.337 163.334C540.134 161.882 543.093 154.905 543.217 146.175C541.696 145.314 540.243 144.64 538.859 144.236C536.489 142.38 534.337 141.063 532.803 140.224L535.571 120.908L515.469 112.022L506.44 139.881C506.494 139.892 506.549 139.902 506.618 139.902C505.11 140.452 503.644 141.146 502.274 141.997C499.561 142.556 497.629 144.34 496.314 146.807C510.139 148.871 518.717 165.418 531.337 163.334Z" fill="#C94343"/>
<path d="M518.871 89.8038C512.116 110.26 516.391 129.793 516.391 129.793C516.391 129.793 534.684 138.171 545.974 138.337C545.974 138.337 556.361 105.698 552.305 92.7069C548.235 79.7261 520.228 85.7085 518.871 89.8038Z" fill="#FFB882"/>
<path d="M521.364 118.347C523.406 100.068 524.926 88.2171 517.527 90.9231C510.142 93.6396 512.677 114.199 512.677 114.199L521.364 118.347Z" fill="#603428"/>
<path d="M551.001 108.964C551.193 107.699 550.727 106.62 549.933 106.548C549.152 106.475 548.357 107.45 548.151 108.715C547.959 109.98 548.425 111.058 549.22 111.13C550.015 111.203 550.81 110.228 551.001 108.964Z" fill="#633D37"/>
<path d="M538.482 107.616C538.673 106.351 538.208 105.272 537.413 105.2C536.632 105.127 535.837 106.102 535.632 107.367C535.44 108.632 535.906 109.71 536.7 109.782C537.495 109.855 538.29 108.88 538.482 107.616Z" fill="#633D37"/>
<path d="M560.508 109.855L557.082 119.218L529.869 117.092L529.28 108.684L509.343 106.496L504.589 111.006L500.574 108.321L506.822 104.889L560.508 109.855Z" fill="#EADDBE"/>
<path d="M550.564 110.146L558.785 110.975L556.154 117.963L550.152 117.321L550.564 110.146Z" fill="#FFB882"/>
<path d="M550.564 110.001L558.785 110.841L556.154 117.818L550.152 117.175L550.564 110.001Z" fill="#FFB882"/>
<path d="M550.383 117.206L552.466 117.424L558.536 110.809L555.96 110.55L550.383 117.206Z" fill="#FFC69F"/>
<path d="M516.525 108.383C514.168 103.511 505.152 104.578 506.741 108.197C508.331 111.826 515.031 118.492 516.785 117.414C518.539 116.356 517.169 109.721 516.525 108.383Z" fill="#FFB882"/>
<path d="M549.121 111.172C549.395 111.047 553.355 123.624 553.588 124.713C553.821 125.812 544.202 123.613 544.202 123.613C544.202 123.613 548.381 111.524 549.121 111.172Z" fill="#FFB882"/>
<path d="M514.757 109.68C513.4 106.891 508.248 107.503 509.152 109.576C510.057 111.65 513.893 115.465 514.894 114.854C515.908 114.242 515.127 110.447 514.757 109.68Z" fill="#DB5B3E"/>
<path d="M515.073 112.178C514.209 110.405 510.935 110.789 511.51 112.116C512.086 113.433 514.525 115.859 515.169 115.475C515.813 115.071 515.319 112.665 515.073 112.178Z" fill="#FFB882"/>
<path d="M547.683 109.886L544.888 117.454L531.94 116.169L531.172 108.476L547.683 109.886Z" fill="#FFB882"/>
<path d="M546.037 109.752L540.501 109.275L532.184 116.201L537.638 116.74L546.037 109.752Z" fill="#FFC69F"/>
<path d="M549.121 111.172C548.984 111.234 548.723 111.721 548.381 112.468C549.641 116.086 551.806 123.022 551.971 123.821C552.149 124.619 547.148 123.686 544.38 123.105C544.27 123.427 544.202 123.613 544.202 123.613C544.202 123.613 553.821 125.801 553.588 124.712C553.355 123.624 549.395 111.047 549.121 111.172Z" fill="#FF9566"/>
<path d="M552.956 112.76C553.819 112.822 554.683 111.92 555.135 110.602L551.367 110.219C551.449 111.64 552.065 112.698 552.956 112.76Z" fill="#633D37"/>
<path d="M537.817 112.117C538.845 112.179 539.818 110.935 540.16 109.245L536.063 108.892C536.036 110.655 536.762 112.054 537.817 112.117Z" fill="#633D37"/>
<path d="M527.017 103.364C535.101 103.717 544.405 102.421 544.405 102.421L545.104 96.8945C545.104 96.8945 529.251 98.9681 527.867 99.9946C526.483 101.031 527.017 103.364 527.017 103.364Z" fill="#7A4939"/>
<path d="M556.931 104.826C552.204 104.588 547.079 102.628 547.079 102.628L547.737 97.1123C547.737 97.1123 556.479 100.316 557.082 101.436C557.698 102.556 556.931 104.826 556.931 104.826Z" fill="#7A4939"/>
<path d="M545.806 125.844L531.323 122.909C531.323 122.909 530.706 129.618 537.941 130.675C545.176 131.743 545.806 125.844 545.806 125.844Z" fill="#472922"/>
<path d="M544.036 127.771C544.666 126.765 544.762 125.801 544.762 125.801L532.334 123.282C532.334 123.282 532.252 124.246 532.567 125.449L544.036 127.771Z" fill="#FFF6E3"/>
<path d="M638.686 145.76C636.877 145.532 635.836 143.375 636.37 140.939C636.644 139.715 637.261 138.647 638.028 137.922C636.754 138.482 635.63 139.902 635.246 141.675C634.712 144.111 635.753 146.268 637.562 146.496C638.467 146.61 639.385 146.226 640.138 145.511C639.672 145.718 639.179 145.822 638.686 145.76Z" fill="#DBC8A2"/>
<path d="M640.343 135.382C638.589 135.164 636.78 136.398 635.602 138.347C636.712 137.092 638.123 136.356 639.493 136.533C641.96 136.844 643.344 139.881 642.59 143.324C642.371 144.319 641.987 145.231 641.508 146.03C642.398 145.024 643.111 143.697 643.44 142.173C644.193 138.731 642.809 135.693 640.343 135.382Z" fill="#D3BB92"/>
<path d="M590.348 154.656C590.842 157.694 589.595 159.612 588.457 159.955C587.32 160.297 583.47 159.156 582.826 158.192C582.182 157.217 589.924 151.981 590.348 154.656Z" fill="#FF9566"/>
<path d="M589.086 152.883C588.744 158.586 587.812 159.094 586.373 159.612C584.934 160.12 580.44 159.415 579.933 158.523C579.426 157.621 580.276 155.382 581.454 155.579C582.646 155.776 584.085 155.838 584.085 155.838L589.086 152.883Z" fill="#FFB882"/>
<path d="M585.242 151.224C583.255 148.922 567.812 149.016 559.591 153.526L567.977 159.871C570.717 156.512 577.897 156.792 582.378 157.082C586.859 157.372 587.229 153.526 585.242 151.224Z" fill="#FFB882"/>
<path d="M585.887 153.993C585.544 159.695 584.612 160.203 583.174 160.721C581.735 161.23 577.241 160.525 576.734 159.633C576.227 158.731 577.076 156.491 578.255 156.688C579.447 156.885 580.885 156.948 580.885 156.948L585.887 153.993Z" fill="#FFB882"/>
<path d="M582.075 150.052C587.255 150.788 590.954 152.26 592.681 153.701C594.407 155.132 596.545 158.782 596.613 159.622C596.682 160.451 593.708 161.488 593.078 160.389C592.448 159.29 590.461 156.013 589.913 155.879C589.379 155.744 584.089 154.043 583.843 154.075C583.596 154.095 582.075 150.052 582.075 150.052Z" fill="#FFB882"/>
<path d="M626.786 179.581C638.351 175.827 644.572 177.466 647.367 171.411L629.842 171.919L626.786 179.581Z" fill="#FF9566"/>
<path d="M639.996 174.479C643.887 172.81 644.819 170.446 644.819 168.901C644.819 167.357 647.957 166.983 648.039 168.456C648.121 169.928 647.368 171.721 646.518 172.686C645.669 173.65 639.996 174.479 639.996 174.479Z" fill="#FF9566"/>
<path d="M635.582 174.739C639.474 173.07 640.406 170.706 640.406 169.161C640.406 167.627 643.543 167.243 643.626 168.715C643.708 170.188 642.954 171.981 642.105 172.946C641.269 173.91 635.582 174.739 635.582 174.739Z" fill="#FF9566"/>
<path d="M630.941 175.06C634.832 173.391 635.764 171.027 635.764 169.482C635.764 167.948 638.902 167.564 638.984 169.036C639.066 170.508 638.313 172.302 637.463 173.266C636.614 174.231 630.941 175.06 630.941 175.06Z" fill="#FF9566"/>
</svg>
